%TF.GenerationSoftware,KiCad,Pcbnew,9.0.7-9.0.7~ubuntu24.04.1*%
%TF.CreationDate,2026-03-18T23:10:03+01:00*%
%TF.ProjectId,NinjaPAMI-2026,4e696e6a-6150-4414-9d49-2d323032362e,rev?*%
%TF.SameCoordinates,Original*%
%TF.FileFunction,Legend,Bot*%
%TF.FilePolarity,Positive*%
%FSLAX46Y46*%
G04 Gerber Fmt 4.6, Leading zero omitted, Abs format (unit mm)*
G04 Created by KiCad (PCBNEW 9.0.7-9.0.7~ubuntu24.04.1) date 2026-03-18 23:10:03*
%MOMM*%
%LPD*%
G01*
G04 APERTURE LIST*
%ADD10C,0.150000*%
%ADD11C,0.120000*%
%ADD12C,0.000000*%
G04 APERTURE END LIST*
D10*
X97606819Y-90718095D02*
X97130628Y-90384762D01*
X97606819Y-90146667D02*
X96606819Y-90146667D01*
X96606819Y-90146667D02*
X96606819Y-90527619D01*
X96606819Y-90527619D02*
X96654438Y-90622857D01*
X96654438Y-90622857D02*
X96702057Y-90670476D01*
X96702057Y-90670476D02*
X96797295Y-90718095D01*
X96797295Y-90718095D02*
X96940152Y-90718095D01*
X96940152Y-90718095D02*
X97035390Y-90670476D01*
X97035390Y-90670476D02*
X97083009Y-90622857D01*
X97083009Y-90622857D02*
X97130628Y-90527619D01*
X97130628Y-90527619D02*
X97130628Y-90146667D01*
X97225866Y-91146667D02*
X97225866Y-91908572D01*
X96606819Y-92289524D02*
X96606819Y-92956190D01*
X96606819Y-92956190D02*
X97606819Y-92527619D01*
X97035390Y-93480000D02*
X96987771Y-93384762D01*
X96987771Y-93384762D02*
X96940152Y-93337143D01*
X96940152Y-93337143D02*
X96844914Y-93289524D01*
X96844914Y-93289524D02*
X96797295Y-93289524D01*
X96797295Y-93289524D02*
X96702057Y-93337143D01*
X96702057Y-93337143D02*
X96654438Y-93384762D01*
X96654438Y-93384762D02*
X96606819Y-93480000D01*
X96606819Y-93480000D02*
X96606819Y-93670476D01*
X96606819Y-93670476D02*
X96654438Y-93765714D01*
X96654438Y-93765714D02*
X96702057Y-93813333D01*
X96702057Y-93813333D02*
X96797295Y-93860952D01*
X96797295Y-93860952D02*
X96844914Y-93860952D01*
X96844914Y-93860952D02*
X96940152Y-93813333D01*
X96940152Y-93813333D02*
X96987771Y-93765714D01*
X96987771Y-93765714D02*
X97035390Y-93670476D01*
X97035390Y-93670476D02*
X97035390Y-93480000D01*
X97035390Y-93480000D02*
X97083009Y-93384762D01*
X97083009Y-93384762D02*
X97130628Y-93337143D01*
X97130628Y-93337143D02*
X97225866Y-93289524D01*
X97225866Y-93289524D02*
X97416342Y-93289524D01*
X97416342Y-93289524D02*
X97511580Y-93337143D01*
X97511580Y-93337143D02*
X97559200Y-93384762D01*
X97559200Y-93384762D02*
X97606819Y-93480000D01*
X97606819Y-93480000D02*
X97606819Y-93670476D01*
X97606819Y-93670476D02*
X97559200Y-93765714D01*
X97559200Y-93765714D02*
X97511580Y-93813333D01*
X97511580Y-93813333D02*
X97416342Y-93860952D01*
X97416342Y-93860952D02*
X97225866Y-93860952D01*
X97225866Y-93860952D02*
X97130628Y-93813333D01*
X97130628Y-93813333D02*
X97083009Y-93765714D01*
X97083009Y-93765714D02*
X97035390Y-93670476D01*
X97083009Y-94622857D02*
X97130628Y-94765714D01*
X97130628Y-94765714D02*
X97178247Y-94813333D01*
X97178247Y-94813333D02*
X97273485Y-94860952D01*
X97273485Y-94860952D02*
X97416342Y-94860952D01*
X97416342Y-94860952D02*
X97511580Y-94813333D01*
X97511580Y-94813333D02*
X97559200Y-94765714D01*
X97559200Y-94765714D02*
X97606819Y-94670476D01*
X97606819Y-94670476D02*
X97606819Y-94289524D01*
X97606819Y-94289524D02*
X96606819Y-94289524D01*
X96606819Y-94289524D02*
X96606819Y-94622857D01*
X96606819Y-94622857D02*
X96654438Y-94718095D01*
X96654438Y-94718095D02*
X96702057Y-94765714D01*
X96702057Y-94765714D02*
X96797295Y-94813333D01*
X96797295Y-94813333D02*
X96892533Y-94813333D01*
X96892533Y-94813333D02*
X96987771Y-94765714D01*
X96987771Y-94765714D02*
X97035390Y-94718095D01*
X97035390Y-94718095D02*
X97083009Y-94622857D01*
X97083009Y-94622857D02*
X97083009Y-94289524D01*
X96606819Y-95765714D02*
X96606819Y-95289524D01*
X96606819Y-95289524D02*
X97083009Y-95241905D01*
X97083009Y-95241905D02*
X97035390Y-95289524D01*
X97035390Y-95289524D02*
X96987771Y-95384762D01*
X96987771Y-95384762D02*
X96987771Y-95622857D01*
X96987771Y-95622857D02*
X97035390Y-95718095D01*
X97035390Y-95718095D02*
X97083009Y-95765714D01*
X97083009Y-95765714D02*
X97178247Y-95813333D01*
X97178247Y-95813333D02*
X97416342Y-95813333D01*
X97416342Y-95813333D02*
X97511580Y-95765714D01*
X97511580Y-95765714D02*
X97559200Y-95718095D01*
X97559200Y-95718095D02*
X97606819Y-95622857D01*
X97606819Y-95622857D02*
X97606819Y-95384762D01*
X97606819Y-95384762D02*
X97559200Y-95289524D01*
X97559200Y-95289524D02*
X97511580Y-95241905D01*
X97511580Y-96241905D02*
X97559200Y-96289524D01*
X97559200Y-96289524D02*
X97606819Y-96241905D01*
X97606819Y-96241905D02*
X97559200Y-96194286D01*
X97559200Y-96194286D02*
X97511580Y-96241905D01*
X97511580Y-96241905D02*
X97606819Y-96241905D01*
X96606819Y-96908571D02*
X96606819Y-97003809D01*
X96606819Y-97003809D02*
X96654438Y-97099047D01*
X96654438Y-97099047D02*
X96702057Y-97146666D01*
X96702057Y-97146666D02*
X96797295Y-97194285D01*
X96797295Y-97194285D02*
X96987771Y-97241904D01*
X96987771Y-97241904D02*
X97225866Y-97241904D01*
X97225866Y-97241904D02*
X97416342Y-97194285D01*
X97416342Y-97194285D02*
X97511580Y-97146666D01*
X97511580Y-97146666D02*
X97559200Y-97099047D01*
X97559200Y-97099047D02*
X97606819Y-97003809D01*
X97606819Y-97003809D02*
X97606819Y-96908571D01*
X97606819Y-96908571D02*
X97559200Y-96813333D01*
X97559200Y-96813333D02*
X97511580Y-96765714D01*
X97511580Y-96765714D02*
X97416342Y-96718095D01*
X97416342Y-96718095D02*
X97225866Y-96670476D01*
X97225866Y-96670476D02*
X96987771Y-96670476D01*
X96987771Y-96670476D02*
X96797295Y-96718095D01*
X96797295Y-96718095D02*
X96702057Y-96765714D01*
X96702057Y-96765714D02*
X96654438Y-96813333D01*
X96654438Y-96813333D02*
X96606819Y-96908571D01*
X97225866Y-97670476D02*
X97225866Y-98432381D01*
X96702057Y-98860952D02*
X96654438Y-98908571D01*
X96654438Y-98908571D02*
X96606819Y-99003809D01*
X96606819Y-99003809D02*
X96606819Y-99241904D01*
X96606819Y-99241904D02*
X96654438Y-99337142D01*
X96654438Y-99337142D02*
X96702057Y-99384761D01*
X96702057Y-99384761D02*
X96797295Y-99432380D01*
X96797295Y-99432380D02*
X96892533Y-99432380D01*
X96892533Y-99432380D02*
X97035390Y-99384761D01*
X97035390Y-99384761D02*
X97606819Y-98813333D01*
X97606819Y-98813333D02*
X97606819Y-99432380D01*
X97511580Y-99860952D02*
X97559200Y-99908571D01*
X97559200Y-99908571D02*
X97606819Y-99860952D01*
X97606819Y-99860952D02*
X97559200Y-99813333D01*
X97559200Y-99813333D02*
X97511580Y-99860952D01*
X97511580Y-99860952D02*
X97606819Y-99860952D01*
X96606819Y-100527618D02*
X96606819Y-100622856D01*
X96606819Y-100622856D02*
X96654438Y-100718094D01*
X96654438Y-100718094D02*
X96702057Y-100765713D01*
X96702057Y-100765713D02*
X96797295Y-100813332D01*
X96797295Y-100813332D02*
X96987771Y-100860951D01*
X96987771Y-100860951D02*
X97225866Y-100860951D01*
X97225866Y-100860951D02*
X97416342Y-100813332D01*
X97416342Y-100813332D02*
X97511580Y-100765713D01*
X97511580Y-100765713D02*
X97559200Y-100718094D01*
X97559200Y-100718094D02*
X97606819Y-100622856D01*
X97606819Y-100622856D02*
X97606819Y-100527618D01*
X97606819Y-100527618D02*
X97559200Y-100432380D01*
X97559200Y-100432380D02*
X97511580Y-100384761D01*
X97511580Y-100384761D02*
X97416342Y-100337142D01*
X97416342Y-100337142D02*
X97225866Y-100289523D01*
X97225866Y-100289523D02*
X96987771Y-100289523D01*
X96987771Y-100289523D02*
X96797295Y-100337142D01*
X96797295Y-100337142D02*
X96702057Y-100384761D01*
X96702057Y-100384761D02*
X96654438Y-100432380D01*
X96654438Y-100432380D02*
X96606819Y-100527618D01*
X97472819Y-103211714D02*
X96996628Y-102878381D01*
X97472819Y-102640286D02*
X96472819Y-102640286D01*
X96472819Y-102640286D02*
X96472819Y-103021238D01*
X96472819Y-103021238D02*
X96520438Y-103116476D01*
X96520438Y-103116476D02*
X96568057Y-103164095D01*
X96568057Y-103164095D02*
X96663295Y-103211714D01*
X96663295Y-103211714D02*
X96806152Y-103211714D01*
X96806152Y-103211714D02*
X96901390Y-103164095D01*
X96901390Y-103164095D02*
X96949009Y-103116476D01*
X96949009Y-103116476D02*
X96996628Y-103021238D01*
X96996628Y-103021238D02*
X96996628Y-102640286D01*
X97091866Y-103640286D02*
X97091866Y-104402191D01*
X96472819Y-104783143D02*
X96472819Y-105449809D01*
X96472819Y-105449809D02*
X97472819Y-105021238D01*
X96901390Y-105973619D02*
X96853771Y-105878381D01*
X96853771Y-105878381D02*
X96806152Y-105830762D01*
X96806152Y-105830762D02*
X96710914Y-105783143D01*
X96710914Y-105783143D02*
X96663295Y-105783143D01*
X96663295Y-105783143D02*
X96568057Y-105830762D01*
X96568057Y-105830762D02*
X96520438Y-105878381D01*
X96520438Y-105878381D02*
X96472819Y-105973619D01*
X96472819Y-105973619D02*
X96472819Y-106164095D01*
X96472819Y-106164095D02*
X96520438Y-106259333D01*
X96520438Y-106259333D02*
X96568057Y-106306952D01*
X96568057Y-106306952D02*
X96663295Y-106354571D01*
X96663295Y-106354571D02*
X96710914Y-106354571D01*
X96710914Y-106354571D02*
X96806152Y-106306952D01*
X96806152Y-106306952D02*
X96853771Y-106259333D01*
X96853771Y-106259333D02*
X96901390Y-106164095D01*
X96901390Y-106164095D02*
X96901390Y-105973619D01*
X96901390Y-105973619D02*
X96949009Y-105878381D01*
X96949009Y-105878381D02*
X96996628Y-105830762D01*
X96996628Y-105830762D02*
X97091866Y-105783143D01*
X97091866Y-105783143D02*
X97282342Y-105783143D01*
X97282342Y-105783143D02*
X97377580Y-105830762D01*
X97377580Y-105830762D02*
X97425200Y-105878381D01*
X97425200Y-105878381D02*
X97472819Y-105973619D01*
X97472819Y-105973619D02*
X97472819Y-106164095D01*
X97472819Y-106164095D02*
X97425200Y-106259333D01*
X97425200Y-106259333D02*
X97377580Y-106306952D01*
X97377580Y-106306952D02*
X97282342Y-106354571D01*
X97282342Y-106354571D02*
X97091866Y-106354571D01*
X97091866Y-106354571D02*
X96996628Y-106306952D01*
X96996628Y-106306952D02*
X96949009Y-106259333D01*
X96949009Y-106259333D02*
X96901390Y-106164095D01*
X96949009Y-106783143D02*
X96949009Y-107116476D01*
X97472819Y-107259333D02*
X97472819Y-106783143D01*
X97472819Y-106783143D02*
X96472819Y-106783143D01*
X96472819Y-106783143D02*
X96472819Y-107259333D01*
X96472819Y-108164095D02*
X96472819Y-107687905D01*
X96472819Y-107687905D02*
X96949009Y-107640286D01*
X96949009Y-107640286D02*
X96901390Y-107687905D01*
X96901390Y-107687905D02*
X96853771Y-107783143D01*
X96853771Y-107783143D02*
X96853771Y-108021238D01*
X96853771Y-108021238D02*
X96901390Y-108116476D01*
X96901390Y-108116476D02*
X96949009Y-108164095D01*
X96949009Y-108164095D02*
X97044247Y-108211714D01*
X97044247Y-108211714D02*
X97282342Y-108211714D01*
X97282342Y-108211714D02*
X97377580Y-108164095D01*
X97377580Y-108164095D02*
X97425200Y-108116476D01*
X97425200Y-108116476D02*
X97472819Y-108021238D01*
X97472819Y-108021238D02*
X97472819Y-107783143D01*
X97472819Y-107783143D02*
X97425200Y-107687905D01*
X97425200Y-107687905D02*
X97377580Y-107640286D01*
X97377580Y-108640286D02*
X97425200Y-108687905D01*
X97425200Y-108687905D02*
X97472819Y-108640286D01*
X97472819Y-108640286D02*
X97425200Y-108592667D01*
X97425200Y-108592667D02*
X97377580Y-108640286D01*
X97377580Y-108640286D02*
X97472819Y-108640286D01*
X96472819Y-109306952D02*
X96472819Y-109402190D01*
X96472819Y-109402190D02*
X96520438Y-109497428D01*
X96520438Y-109497428D02*
X96568057Y-109545047D01*
X96568057Y-109545047D02*
X96663295Y-109592666D01*
X96663295Y-109592666D02*
X96853771Y-109640285D01*
X96853771Y-109640285D02*
X97091866Y-109640285D01*
X97091866Y-109640285D02*
X97282342Y-109592666D01*
X97282342Y-109592666D02*
X97377580Y-109545047D01*
X97377580Y-109545047D02*
X97425200Y-109497428D01*
X97425200Y-109497428D02*
X97472819Y-109402190D01*
X97472819Y-109402190D02*
X97472819Y-109306952D01*
X97472819Y-109306952D02*
X97425200Y-109211714D01*
X97425200Y-109211714D02*
X97377580Y-109164095D01*
X97377580Y-109164095D02*
X97282342Y-109116476D01*
X97282342Y-109116476D02*
X97091866Y-109068857D01*
X97091866Y-109068857D02*
X96853771Y-109068857D01*
X96853771Y-109068857D02*
X96663295Y-109116476D01*
X96663295Y-109116476D02*
X96568057Y-109164095D01*
X96568057Y-109164095D02*
X96520438Y-109211714D01*
X96520438Y-109211714D02*
X96472819Y-109306952D01*
X97091866Y-110068857D02*
X97091866Y-110830762D01*
X97472819Y-111830761D02*
X97472819Y-111259333D01*
X97472819Y-111545047D02*
X96472819Y-111545047D01*
X96472819Y-111545047D02*
X96615676Y-111449809D01*
X96615676Y-111449809D02*
X96710914Y-111354571D01*
X96710914Y-111354571D02*
X96758533Y-111259333D01*
X97377580Y-112259333D02*
X97425200Y-112306952D01*
X97425200Y-112306952D02*
X97472819Y-112259333D01*
X97472819Y-112259333D02*
X97425200Y-112211714D01*
X97425200Y-112211714D02*
X97377580Y-112259333D01*
X97377580Y-112259333D02*
X97472819Y-112259333D01*
X96472819Y-112925999D02*
X96472819Y-113021237D01*
X96472819Y-113021237D02*
X96520438Y-113116475D01*
X96520438Y-113116475D02*
X96568057Y-113164094D01*
X96568057Y-113164094D02*
X96663295Y-113211713D01*
X96663295Y-113211713D02*
X96853771Y-113259332D01*
X96853771Y-113259332D02*
X97091866Y-113259332D01*
X97091866Y-113259332D02*
X97282342Y-113211713D01*
X97282342Y-113211713D02*
X97377580Y-113164094D01*
X97377580Y-113164094D02*
X97425200Y-113116475D01*
X97425200Y-113116475D02*
X97472819Y-113021237D01*
X97472819Y-113021237D02*
X97472819Y-112925999D01*
X97472819Y-112925999D02*
X97425200Y-112830761D01*
X97425200Y-112830761D02*
X97377580Y-112783142D01*
X97377580Y-112783142D02*
X97282342Y-112735523D01*
X97282342Y-112735523D02*
X97091866Y-112687904D01*
X97091866Y-112687904D02*
X96853771Y-112687904D01*
X96853771Y-112687904D02*
X96663295Y-112735523D01*
X96663295Y-112735523D02*
X96568057Y-112783142D01*
X96568057Y-112783142D02*
X96520438Y-112830761D01*
X96520438Y-112830761D02*
X96472819Y-112925999D01*
X97606819Y-78486095D02*
X97130628Y-78152762D01*
X97606819Y-77914667D02*
X96606819Y-77914667D01*
X96606819Y-77914667D02*
X96606819Y-78295619D01*
X96606819Y-78295619D02*
X96654438Y-78390857D01*
X96654438Y-78390857D02*
X96702057Y-78438476D01*
X96702057Y-78438476D02*
X96797295Y-78486095D01*
X96797295Y-78486095D02*
X96940152Y-78486095D01*
X96940152Y-78486095D02*
X97035390Y-78438476D01*
X97035390Y-78438476D02*
X97083009Y-78390857D01*
X97083009Y-78390857D02*
X97130628Y-78295619D01*
X97130628Y-78295619D02*
X97130628Y-77914667D01*
X97225866Y-78914667D02*
X97225866Y-79676572D01*
X96606819Y-80057524D02*
X96606819Y-80724190D01*
X96606819Y-80724190D02*
X97606819Y-80295619D01*
X97035390Y-81248000D02*
X96987771Y-81152762D01*
X96987771Y-81152762D02*
X96940152Y-81105143D01*
X96940152Y-81105143D02*
X96844914Y-81057524D01*
X96844914Y-81057524D02*
X96797295Y-81057524D01*
X96797295Y-81057524D02*
X96702057Y-81105143D01*
X96702057Y-81105143D02*
X96654438Y-81152762D01*
X96654438Y-81152762D02*
X96606819Y-81248000D01*
X96606819Y-81248000D02*
X96606819Y-81438476D01*
X96606819Y-81438476D02*
X96654438Y-81533714D01*
X96654438Y-81533714D02*
X96702057Y-81581333D01*
X96702057Y-81581333D02*
X96797295Y-81628952D01*
X96797295Y-81628952D02*
X96844914Y-81628952D01*
X96844914Y-81628952D02*
X96940152Y-81581333D01*
X96940152Y-81581333D02*
X96987771Y-81533714D01*
X96987771Y-81533714D02*
X97035390Y-81438476D01*
X97035390Y-81438476D02*
X97035390Y-81248000D01*
X97035390Y-81248000D02*
X97083009Y-81152762D01*
X97083009Y-81152762D02*
X97130628Y-81105143D01*
X97130628Y-81105143D02*
X97225866Y-81057524D01*
X97225866Y-81057524D02*
X97416342Y-81057524D01*
X97416342Y-81057524D02*
X97511580Y-81105143D01*
X97511580Y-81105143D02*
X97559200Y-81152762D01*
X97559200Y-81152762D02*
X97606819Y-81248000D01*
X97606819Y-81248000D02*
X97606819Y-81438476D01*
X97606819Y-81438476D02*
X97559200Y-81533714D01*
X97559200Y-81533714D02*
X97511580Y-81581333D01*
X97511580Y-81581333D02*
X97416342Y-81628952D01*
X97416342Y-81628952D02*
X97225866Y-81628952D01*
X97225866Y-81628952D02*
X97130628Y-81581333D01*
X97130628Y-81581333D02*
X97083009Y-81533714D01*
X97083009Y-81533714D02*
X97035390Y-81438476D01*
X97083009Y-82390857D02*
X97130628Y-82533714D01*
X97130628Y-82533714D02*
X97178247Y-82581333D01*
X97178247Y-82581333D02*
X97273485Y-82628952D01*
X97273485Y-82628952D02*
X97416342Y-82628952D01*
X97416342Y-82628952D02*
X97511580Y-82581333D01*
X97511580Y-82581333D02*
X97559200Y-82533714D01*
X97559200Y-82533714D02*
X97606819Y-82438476D01*
X97606819Y-82438476D02*
X97606819Y-82057524D01*
X97606819Y-82057524D02*
X96606819Y-82057524D01*
X96606819Y-82057524D02*
X96606819Y-82390857D01*
X96606819Y-82390857D02*
X96654438Y-82486095D01*
X96654438Y-82486095D02*
X96702057Y-82533714D01*
X96702057Y-82533714D02*
X96797295Y-82581333D01*
X96797295Y-82581333D02*
X96892533Y-82581333D01*
X96892533Y-82581333D02*
X96987771Y-82533714D01*
X96987771Y-82533714D02*
X97035390Y-82486095D01*
X97035390Y-82486095D02*
X97083009Y-82390857D01*
X97083009Y-82390857D02*
X97083009Y-82057524D01*
X96606819Y-83533714D02*
X96606819Y-83057524D01*
X96606819Y-83057524D02*
X97083009Y-83009905D01*
X97083009Y-83009905D02*
X97035390Y-83057524D01*
X97035390Y-83057524D02*
X96987771Y-83152762D01*
X96987771Y-83152762D02*
X96987771Y-83390857D01*
X96987771Y-83390857D02*
X97035390Y-83486095D01*
X97035390Y-83486095D02*
X97083009Y-83533714D01*
X97083009Y-83533714D02*
X97178247Y-83581333D01*
X97178247Y-83581333D02*
X97416342Y-83581333D01*
X97416342Y-83581333D02*
X97511580Y-83533714D01*
X97511580Y-83533714D02*
X97559200Y-83486095D01*
X97559200Y-83486095D02*
X97606819Y-83390857D01*
X97606819Y-83390857D02*
X97606819Y-83152762D01*
X97606819Y-83152762D02*
X97559200Y-83057524D01*
X97559200Y-83057524D02*
X97511580Y-83009905D01*
X97511580Y-84009905D02*
X97559200Y-84057524D01*
X97559200Y-84057524D02*
X97606819Y-84009905D01*
X97606819Y-84009905D02*
X97559200Y-83962286D01*
X97559200Y-83962286D02*
X97511580Y-84009905D01*
X97511580Y-84009905D02*
X97606819Y-84009905D01*
X96606819Y-84676571D02*
X96606819Y-84771809D01*
X96606819Y-84771809D02*
X96654438Y-84867047D01*
X96654438Y-84867047D02*
X96702057Y-84914666D01*
X96702057Y-84914666D02*
X96797295Y-84962285D01*
X96797295Y-84962285D02*
X96987771Y-85009904D01*
X96987771Y-85009904D02*
X97225866Y-85009904D01*
X97225866Y-85009904D02*
X97416342Y-84962285D01*
X97416342Y-84962285D02*
X97511580Y-84914666D01*
X97511580Y-84914666D02*
X97559200Y-84867047D01*
X97559200Y-84867047D02*
X97606819Y-84771809D01*
X97606819Y-84771809D02*
X97606819Y-84676571D01*
X97606819Y-84676571D02*
X97559200Y-84581333D01*
X97559200Y-84581333D02*
X97511580Y-84533714D01*
X97511580Y-84533714D02*
X97416342Y-84486095D01*
X97416342Y-84486095D02*
X97225866Y-84438476D01*
X97225866Y-84438476D02*
X96987771Y-84438476D01*
X96987771Y-84438476D02*
X96797295Y-84486095D01*
X96797295Y-84486095D02*
X96702057Y-84533714D01*
X96702057Y-84533714D02*
X96654438Y-84581333D01*
X96654438Y-84581333D02*
X96606819Y-84676571D01*
X97225866Y-85438476D02*
X97225866Y-86200381D01*
X96702057Y-86628952D02*
X96654438Y-86676571D01*
X96654438Y-86676571D02*
X96606819Y-86771809D01*
X96606819Y-86771809D02*
X96606819Y-87009904D01*
X96606819Y-87009904D02*
X96654438Y-87105142D01*
X96654438Y-87105142D02*
X96702057Y-87152761D01*
X96702057Y-87152761D02*
X96797295Y-87200380D01*
X96797295Y-87200380D02*
X96892533Y-87200380D01*
X96892533Y-87200380D02*
X97035390Y-87152761D01*
X97035390Y-87152761D02*
X97606819Y-86581333D01*
X97606819Y-86581333D02*
X97606819Y-87200380D01*
X97511580Y-87628952D02*
X97559200Y-87676571D01*
X97559200Y-87676571D02*
X97606819Y-87628952D01*
X97606819Y-87628952D02*
X97559200Y-87581333D01*
X97559200Y-87581333D02*
X97511580Y-87628952D01*
X97511580Y-87628952D02*
X97606819Y-87628952D01*
X96606819Y-88295618D02*
X96606819Y-88390856D01*
X96606819Y-88390856D02*
X96654438Y-88486094D01*
X96654438Y-88486094D02*
X96702057Y-88533713D01*
X96702057Y-88533713D02*
X96797295Y-88581332D01*
X96797295Y-88581332D02*
X96987771Y-88628951D01*
X96987771Y-88628951D02*
X97225866Y-88628951D01*
X97225866Y-88628951D02*
X97416342Y-88581332D01*
X97416342Y-88581332D02*
X97511580Y-88533713D01*
X97511580Y-88533713D02*
X97559200Y-88486094D01*
X97559200Y-88486094D02*
X97606819Y-88390856D01*
X97606819Y-88390856D02*
X97606819Y-88295618D01*
X97606819Y-88295618D02*
X97559200Y-88200380D01*
X97559200Y-88200380D02*
X97511580Y-88152761D01*
X97511580Y-88152761D02*
X97416342Y-88105142D01*
X97416342Y-88105142D02*
X97225866Y-88057523D01*
X97225866Y-88057523D02*
X96987771Y-88057523D01*
X96987771Y-88057523D02*
X96797295Y-88105142D01*
X96797295Y-88105142D02*
X96702057Y-88152761D01*
X96702057Y-88152761D02*
X96654438Y-88200380D01*
X96654438Y-88200380D02*
X96606819Y-88295618D01*
X100333333Y-72554819D02*
X100333333Y-73269104D01*
X100333333Y-73269104D02*
X100380952Y-73411961D01*
X100380952Y-73411961D02*
X100476190Y-73507200D01*
X100476190Y-73507200D02*
X100619047Y-73554819D01*
X100619047Y-73554819D02*
X100714285Y-73554819D01*
X99428571Y-72554819D02*
X99619047Y-72554819D01*
X99619047Y-72554819D02*
X99714285Y-72602438D01*
X99714285Y-72602438D02*
X99761904Y-72650057D01*
X99761904Y-72650057D02*
X99857142Y-72792914D01*
X99857142Y-72792914D02*
X99904761Y-72983390D01*
X99904761Y-72983390D02*
X99904761Y-73364342D01*
X99904761Y-73364342D02*
X99857142Y-73459580D01*
X99857142Y-73459580D02*
X99809523Y-73507200D01*
X99809523Y-73507200D02*
X99714285Y-73554819D01*
X99714285Y-73554819D02*
X99523809Y-73554819D01*
X99523809Y-73554819D02*
X99428571Y-73507200D01*
X99428571Y-73507200D02*
X99380952Y-73459580D01*
X99380952Y-73459580D02*
X99333333Y-73364342D01*
X99333333Y-73364342D02*
X99333333Y-73126247D01*
X99333333Y-73126247D02*
X99380952Y-73031009D01*
X99380952Y-73031009D02*
X99428571Y-72983390D01*
X99428571Y-72983390D02*
X99523809Y-72935771D01*
X99523809Y-72935771D02*
X99714285Y-72935771D01*
X99714285Y-72935771D02*
X99809523Y-72983390D01*
X99809523Y-72983390D02*
X99857142Y-73031009D01*
X99857142Y-73031009D02*
X99904761Y-73126247D01*
X88582819Y-112617142D02*
X88106628Y-112283809D01*
X88582819Y-112045714D02*
X87582819Y-112045714D01*
X87582819Y-112045714D02*
X87582819Y-112426666D01*
X87582819Y-112426666D02*
X87630438Y-112521904D01*
X87630438Y-112521904D02*
X87678057Y-112569523D01*
X87678057Y-112569523D02*
X87773295Y-112617142D01*
X87773295Y-112617142D02*
X87916152Y-112617142D01*
X87916152Y-112617142D02*
X88011390Y-112569523D01*
X88011390Y-112569523D02*
X88059009Y-112521904D01*
X88059009Y-112521904D02*
X88106628Y-112426666D01*
X88106628Y-112426666D02*
X88106628Y-112045714D01*
X88582819Y-113569523D02*
X88582819Y-112998095D01*
X88582819Y-113283809D02*
X87582819Y-113283809D01*
X87582819Y-113283809D02*
X87725676Y-113188571D01*
X87725676Y-113188571D02*
X87820914Y-113093333D01*
X87820914Y-113093333D02*
X87868533Y-112998095D01*
X87582819Y-114188571D02*
X87582819Y-114283809D01*
X87582819Y-114283809D02*
X87630438Y-114379047D01*
X87630438Y-114379047D02*
X87678057Y-114426666D01*
X87678057Y-114426666D02*
X87773295Y-114474285D01*
X87773295Y-114474285D02*
X87963771Y-114521904D01*
X87963771Y-114521904D02*
X88201866Y-114521904D01*
X88201866Y-114521904D02*
X88392342Y-114474285D01*
X88392342Y-114474285D02*
X88487580Y-114426666D01*
X88487580Y-114426666D02*
X88535200Y-114379047D01*
X88535200Y-114379047D02*
X88582819Y-114283809D01*
X88582819Y-114283809D02*
X88582819Y-114188571D01*
X88582819Y-114188571D02*
X88535200Y-114093333D01*
X88535200Y-114093333D02*
X88487580Y-114045714D01*
X88487580Y-114045714D02*
X88392342Y-113998095D01*
X88392342Y-113998095D02*
X88201866Y-113950476D01*
X88201866Y-113950476D02*
X87963771Y-113950476D01*
X87963771Y-113950476D02*
X87773295Y-113998095D01*
X87773295Y-113998095D02*
X87678057Y-114045714D01*
X87678057Y-114045714D02*
X87630438Y-114093333D01*
X87630438Y-114093333D02*
X87582819Y-114188571D01*
X93946094Y-83745319D02*
X93946094Y-82745319D01*
X93946094Y-82745319D02*
X93707999Y-82745319D01*
X93707999Y-82745319D02*
X93565142Y-82792938D01*
X93565142Y-82792938D02*
X93469904Y-82888176D01*
X93469904Y-82888176D02*
X93422285Y-82983414D01*
X93422285Y-82983414D02*
X93374666Y-83173890D01*
X93374666Y-83173890D02*
X93374666Y-83316747D01*
X93374666Y-83316747D02*
X93422285Y-83507223D01*
X93422285Y-83507223D02*
X93469904Y-83602461D01*
X93469904Y-83602461D02*
X93565142Y-83697700D01*
X93565142Y-83697700D02*
X93707999Y-83745319D01*
X93707999Y-83745319D02*
X93946094Y-83745319D01*
X93041332Y-82745319D02*
X92422285Y-82745319D01*
X92422285Y-82745319D02*
X92755618Y-83126271D01*
X92755618Y-83126271D02*
X92612761Y-83126271D01*
X92612761Y-83126271D02*
X92517523Y-83173890D01*
X92517523Y-83173890D02*
X92469904Y-83221509D01*
X92469904Y-83221509D02*
X92422285Y-83316747D01*
X92422285Y-83316747D02*
X92422285Y-83554842D01*
X92422285Y-83554842D02*
X92469904Y-83650080D01*
X92469904Y-83650080D02*
X92517523Y-83697700D01*
X92517523Y-83697700D02*
X92612761Y-83745319D01*
X92612761Y-83745319D02*
X92898475Y-83745319D01*
X92898475Y-83745319D02*
X92993713Y-83697700D01*
X92993713Y-83697700D02*
X93041332Y-83650080D01*
X88582819Y-90106333D02*
X88106628Y-89773000D01*
X88582819Y-89534905D02*
X87582819Y-89534905D01*
X87582819Y-89534905D02*
X87582819Y-89915857D01*
X87582819Y-89915857D02*
X87630438Y-90011095D01*
X87630438Y-90011095D02*
X87678057Y-90058714D01*
X87678057Y-90058714D02*
X87773295Y-90106333D01*
X87773295Y-90106333D02*
X87916152Y-90106333D01*
X87916152Y-90106333D02*
X88011390Y-90058714D01*
X88011390Y-90058714D02*
X88059009Y-90011095D01*
X88059009Y-90011095D02*
X88106628Y-89915857D01*
X88106628Y-89915857D02*
X88106628Y-89534905D01*
X88582819Y-90582524D02*
X88582819Y-90773000D01*
X88582819Y-90773000D02*
X88535200Y-90868238D01*
X88535200Y-90868238D02*
X88487580Y-90915857D01*
X88487580Y-90915857D02*
X88344723Y-91011095D01*
X88344723Y-91011095D02*
X88154247Y-91058714D01*
X88154247Y-91058714D02*
X87773295Y-91058714D01*
X87773295Y-91058714D02*
X87678057Y-91011095D01*
X87678057Y-91011095D02*
X87630438Y-90963476D01*
X87630438Y-90963476D02*
X87582819Y-90868238D01*
X87582819Y-90868238D02*
X87582819Y-90677762D01*
X87582819Y-90677762D02*
X87630438Y-90582524D01*
X87630438Y-90582524D02*
X87678057Y-90534905D01*
X87678057Y-90534905D02*
X87773295Y-90487286D01*
X87773295Y-90487286D02*
X88011390Y-90487286D01*
X88011390Y-90487286D02*
X88106628Y-90534905D01*
X88106628Y-90534905D02*
X88154247Y-90582524D01*
X88154247Y-90582524D02*
X88201866Y-90677762D01*
X88201866Y-90677762D02*
X88201866Y-90868238D01*
X88201866Y-90868238D02*
X88154247Y-90963476D01*
X88154247Y-90963476D02*
X88106628Y-91011095D01*
X88106628Y-91011095D02*
X88011390Y-91058714D01*
X94454094Y-108634819D02*
X94454094Y-107634819D01*
X94454094Y-107634819D02*
X94215999Y-107634819D01*
X94215999Y-107634819D02*
X94073142Y-107682438D01*
X94073142Y-107682438D02*
X93977904Y-107777676D01*
X93977904Y-107777676D02*
X93930285Y-107872914D01*
X93930285Y-107872914D02*
X93882666Y-108063390D01*
X93882666Y-108063390D02*
X93882666Y-108206247D01*
X93882666Y-108206247D02*
X93930285Y-108396723D01*
X93930285Y-108396723D02*
X93977904Y-108491961D01*
X93977904Y-108491961D02*
X94073142Y-108587200D01*
X94073142Y-108587200D02*
X94215999Y-108634819D01*
X94215999Y-108634819D02*
X94454094Y-108634819D01*
X92977904Y-107634819D02*
X93454094Y-107634819D01*
X93454094Y-107634819D02*
X93501713Y-108111009D01*
X93501713Y-108111009D02*
X93454094Y-108063390D01*
X93454094Y-108063390D02*
X93358856Y-108015771D01*
X93358856Y-108015771D02*
X93120761Y-108015771D01*
X93120761Y-108015771D02*
X93025523Y-108063390D01*
X93025523Y-108063390D02*
X92977904Y-108111009D01*
X92977904Y-108111009D02*
X92930285Y-108206247D01*
X92930285Y-108206247D02*
X92930285Y-108444342D01*
X92930285Y-108444342D02*
X92977904Y-108539580D01*
X92977904Y-108539580D02*
X93025523Y-108587200D01*
X93025523Y-108587200D02*
X93120761Y-108634819D01*
X93120761Y-108634819D02*
X93358856Y-108634819D01*
X93358856Y-108634819D02*
X93454094Y-108587200D01*
X93454094Y-108587200D02*
X93501713Y-108539580D01*
X93946094Y-95977319D02*
X93946094Y-94977319D01*
X93946094Y-94977319D02*
X93707999Y-94977319D01*
X93707999Y-94977319D02*
X93565142Y-95024938D01*
X93565142Y-95024938D02*
X93469904Y-95120176D01*
X93469904Y-95120176D02*
X93422285Y-95215414D01*
X93422285Y-95215414D02*
X93374666Y-95405890D01*
X93374666Y-95405890D02*
X93374666Y-95548747D01*
X93374666Y-95548747D02*
X93422285Y-95739223D01*
X93422285Y-95739223D02*
X93469904Y-95834461D01*
X93469904Y-95834461D02*
X93565142Y-95929700D01*
X93565142Y-95929700D02*
X93707999Y-95977319D01*
X93707999Y-95977319D02*
X93946094Y-95977319D01*
X93041332Y-94977319D02*
X92374666Y-94977319D01*
X92374666Y-94977319D02*
X92803237Y-95977319D01*
X108709713Y-100776819D02*
X108090666Y-100776819D01*
X108090666Y-100776819D02*
X108423999Y-101157771D01*
X108423999Y-101157771D02*
X108281142Y-101157771D01*
X108281142Y-101157771D02*
X108185904Y-101205390D01*
X108185904Y-101205390D02*
X108138285Y-101253009D01*
X108138285Y-101253009D02*
X108090666Y-101348247D01*
X108090666Y-101348247D02*
X108090666Y-101586342D01*
X108090666Y-101586342D02*
X108138285Y-101681580D01*
X108138285Y-101681580D02*
X108185904Y-101729200D01*
X108185904Y-101729200D02*
X108281142Y-101776819D01*
X108281142Y-101776819D02*
X108566856Y-101776819D01*
X108566856Y-101776819D02*
X108662094Y-101729200D01*
X108662094Y-101729200D02*
X108709713Y-101681580D01*
X107757332Y-100776819D02*
X107138285Y-100776819D01*
X107138285Y-100776819D02*
X107471618Y-101157771D01*
X107471618Y-101157771D02*
X107328761Y-101157771D01*
X107328761Y-101157771D02*
X107233523Y-101205390D01*
X107233523Y-101205390D02*
X107185904Y-101253009D01*
X107185904Y-101253009D02*
X107138285Y-101348247D01*
X107138285Y-101348247D02*
X107138285Y-101586342D01*
X107138285Y-101586342D02*
X107185904Y-101681580D01*
X107185904Y-101681580D02*
X107233523Y-101729200D01*
X107233523Y-101729200D02*
X107328761Y-101776819D01*
X107328761Y-101776819D02*
X107614475Y-101776819D01*
X107614475Y-101776819D02*
X107709713Y-101729200D01*
X107709713Y-101729200D02*
X107757332Y-101681580D01*
X106519237Y-100776819D02*
X106423999Y-100776819D01*
X106423999Y-100776819D02*
X106328761Y-100824438D01*
X106328761Y-100824438D02*
X106281142Y-100872057D01*
X106281142Y-100872057D02*
X106233523Y-100967295D01*
X106233523Y-100967295D02*
X106185904Y-101157771D01*
X106185904Y-101157771D02*
X106185904Y-101395866D01*
X106185904Y-101395866D02*
X106233523Y-101586342D01*
X106233523Y-101586342D02*
X106281142Y-101681580D01*
X106281142Y-101681580D02*
X106328761Y-101729200D01*
X106328761Y-101729200D02*
X106423999Y-101776819D01*
X106423999Y-101776819D02*
X106519237Y-101776819D01*
X106519237Y-101776819D02*
X106614475Y-101729200D01*
X106614475Y-101729200D02*
X106662094Y-101681580D01*
X106662094Y-101681580D02*
X106709713Y-101586342D01*
X106709713Y-101586342D02*
X106757332Y-101395866D01*
X106757332Y-101395866D02*
X106757332Y-101157771D01*
X106757332Y-101157771D02*
X106709713Y-100967295D01*
X106709713Y-100967295D02*
X106662094Y-100872057D01*
X106662094Y-100872057D02*
X106614475Y-100824438D01*
X106614475Y-100824438D02*
X106519237Y-100776819D01*
X105185904Y-101776819D02*
X105519237Y-101300628D01*
X105757332Y-101776819D02*
X105757332Y-100776819D01*
X105757332Y-100776819D02*
X105376380Y-100776819D01*
X105376380Y-100776819D02*
X105281142Y-100824438D01*
X105281142Y-100824438D02*
X105233523Y-100872057D01*
X105233523Y-100872057D02*
X105185904Y-100967295D01*
X105185904Y-100967295D02*
X105185904Y-101110152D01*
X105185904Y-101110152D02*
X105233523Y-101205390D01*
X105233523Y-101205390D02*
X105281142Y-101253009D01*
X105281142Y-101253009D02*
X105376380Y-101300628D01*
X105376380Y-101300628D02*
X105757332Y-101300628D01*
D11*
%TO.C,J5*%
X121980000Y-70980000D02*
X121980000Y-66980000D01*
X122850000Y-71410000D02*
X124450000Y-71410000D01*
X122850000Y-72010000D02*
X122850000Y-71410000D01*
X123650000Y-65990000D02*
X123650000Y-66990001D01*
X123650000Y-66990001D02*
X123900000Y-67520000D01*
X123650000Y-66990001D02*
X136350001Y-66990000D01*
X123900000Y-65990000D02*
X123900000Y-66990000D01*
X123900000Y-67520000D02*
X136100000Y-67520001D01*
X124450000Y-71410000D02*
X124450000Y-72010000D01*
X125390000Y-71410000D02*
X126990000Y-71410000D01*
X125390000Y-72010000D02*
X125390000Y-71410000D01*
X126990000Y-71410000D02*
X126990000Y-72010000D01*
X127930000Y-72010001D02*
X127930001Y-71410000D01*
X127930001Y-71410000D02*
X129529999Y-71410000D01*
X129529999Y-71410000D02*
X129529999Y-72010000D01*
X130470000Y-71410000D02*
X132070001Y-71410000D01*
X130470000Y-72010000D02*
X130470000Y-71410000D01*
X132070001Y-71410000D02*
X132070001Y-72010000D01*
X133010000Y-71410000D02*
X134610000Y-71410000D01*
X133010000Y-72010000D02*
X133010000Y-71410000D01*
X134610000Y-71410000D02*
X134610000Y-72010000D01*
X135550000Y-71410000D02*
X137150000Y-71410000D01*
X135550000Y-72010000D02*
X135550000Y-71410000D01*
X136100000Y-65990000D02*
X136100000Y-66990000D01*
X136100000Y-67520001D02*
X136350001Y-66990000D01*
X136350001Y-66990000D02*
X136350000Y-65990000D01*
X137150000Y-71410000D02*
X137150000Y-72010000D01*
X137730000Y-72010000D02*
X122270000Y-72010000D01*
X122270000Y-65990000D01*
X137730000Y-65990000D01*
X137730000Y-72010000D01*
D12*
%TO.C,G\u002A\u002A\u002A*%
G36*
X101077399Y-94044804D02*
G01*
X101130992Y-94044872D01*
X101173401Y-94045100D01*
X101206157Y-94045585D01*
X101230787Y-94046420D01*
X101248820Y-94047700D01*
X101261784Y-94049520D01*
X101271209Y-94051974D01*
X101278624Y-94055157D01*
X101285555Y-94059164D01*
X101298358Y-94069042D01*
X101318178Y-94095147D01*
X101329504Y-94126482D01*
X101330272Y-94158463D01*
X101326398Y-94172550D01*
X101310245Y-94200220D01*
X101285999Y-94222900D01*
X101257159Y-94236841D01*
X101249016Y-94238331D01*
X101226528Y-94240379D01*
X101194461Y-94241994D01*
X101155101Y-94243176D01*
X101110737Y-94243925D01*
X101063655Y-94244239D01*
X101016142Y-94244118D01*
X100970485Y-94243562D01*
X100928971Y-94242569D01*
X100893887Y-94241139D01*
X100867521Y-94239271D01*
X100852158Y-94236964D01*
X100822794Y-94223194D01*
X100797526Y-94198445D01*
X100781430Y-94165817D01*
X100778082Y-94147425D01*
X100781675Y-94114853D01*
X100796261Y-94084975D01*
X100820551Y-94061243D01*
X100844747Y-94044801D01*
X101053532Y-94044801D01*
X101077399Y-94044804D01*
G37*
G36*
X101786102Y-94684788D02*
G01*
X101810134Y-94700964D01*
X101831296Y-94727605D01*
X101841238Y-94758949D01*
X101839366Y-94792819D01*
X101825081Y-94827038D01*
X101823432Y-94829803D01*
X101819898Y-94836055D01*
X101816474Y-94841612D01*
X101812417Y-94846515D01*
X101806982Y-94850805D01*
X101799423Y-94854522D01*
X101788995Y-94857708D01*
X101774954Y-94860402D01*
X101756555Y-94862646D01*
X101733052Y-94864481D01*
X101703700Y-94865947D01*
X101667755Y-94867085D01*
X101624471Y-94867936D01*
X101573104Y-94868540D01*
X101512909Y-94868939D01*
X101443140Y-94869174D01*
X101363053Y-94869284D01*
X101271902Y-94869311D01*
X101168943Y-94869296D01*
X101053430Y-94869279D01*
X100983748Y-94869275D01*
X100878549Y-94869257D01*
X100785422Y-94869213D01*
X100703606Y-94869129D01*
X100632335Y-94868991D01*
X100570847Y-94868785D01*
X100518377Y-94868498D01*
X100474161Y-94868116D01*
X100437437Y-94867625D01*
X100407439Y-94867011D01*
X100383404Y-94866262D01*
X100364569Y-94865362D01*
X100350170Y-94864298D01*
X100339442Y-94863057D01*
X100331622Y-94861624D01*
X100325947Y-94859986D01*
X100321652Y-94858130D01*
X100317974Y-94856041D01*
X100317299Y-94855626D01*
X100290998Y-94832617D01*
X100275190Y-94804500D01*
X100269540Y-94773819D01*
X100273708Y-94743119D01*
X100287360Y-94714944D01*
X100310158Y-94691840D01*
X100341764Y-94676351D01*
X100348912Y-94675702D01*
X100368778Y-94674978D01*
X100400259Y-94674281D01*
X100442457Y-94673616D01*
X100494472Y-94672992D01*
X100555407Y-94672417D01*
X100624363Y-94671898D01*
X100700441Y-94671441D01*
X100782744Y-94671056D01*
X100870372Y-94670749D01*
X100962428Y-94670527D01*
X101058013Y-94670399D01*
X101756434Y-94669827D01*
X101786102Y-94684788D01*
G37*
G36*
X101062262Y-94359328D02*
G01*
X101085028Y-94359393D01*
X101171653Y-94359651D01*
X101246167Y-94359914D01*
X101309526Y-94360213D01*
X101362688Y-94360576D01*
X101406609Y-94361034D01*
X101442245Y-94361617D01*
X101470554Y-94362354D01*
X101492493Y-94363276D01*
X101509017Y-94364412D01*
X101521085Y-94365792D01*
X101529652Y-94367446D01*
X101535676Y-94369403D01*
X101540113Y-94371694D01*
X101543920Y-94374348D01*
X101544234Y-94374583D01*
X101570542Y-94399121D01*
X101585171Y-94425661D01*
X101589697Y-94457052D01*
X101589697Y-94457386D01*
X101585081Y-94488717D01*
X101570347Y-94515225D01*
X101543920Y-94539757D01*
X101543681Y-94539934D01*
X101539812Y-94542592D01*
X101535230Y-94544883D01*
X101528967Y-94546838D01*
X101520054Y-94548490D01*
X101507524Y-94549871D01*
X101490409Y-94551014D01*
X101467740Y-94551949D01*
X101438549Y-94552710D01*
X101401869Y-94553329D01*
X101356730Y-94553837D01*
X101302166Y-94554267D01*
X101237208Y-94554651D01*
X101160887Y-94555020D01*
X101072236Y-94555408D01*
X101030087Y-94555572D01*
X100954816Y-94555775D01*
X100883657Y-94555857D01*
X100817761Y-94555822D01*
X100758273Y-94555674D01*
X100706343Y-94555419D01*
X100663118Y-94555061D01*
X100629747Y-94554605D01*
X100607378Y-94554055D01*
X100597160Y-94553418D01*
X100581875Y-94548595D01*
X100556295Y-94532243D01*
X100535046Y-94509073D01*
X100522334Y-94483042D01*
X100520658Y-94475636D01*
X100520550Y-94441572D01*
X100531810Y-94409725D01*
X100552914Y-94383099D01*
X100582341Y-94364697D01*
X100586033Y-94363944D01*
X100603106Y-94362633D01*
X100632974Y-94361524D01*
X100675303Y-94360621D01*
X100729763Y-94359928D01*
X100796020Y-94359449D01*
X100873744Y-94359186D01*
X100962602Y-94359145D01*
X101062262Y-94359328D01*
G37*
G36*
X101472703Y-94988974D02*
G01*
X101564076Y-94989042D01*
X101645106Y-94989193D01*
X101716440Y-94989451D01*
X101778728Y-94989842D01*
X101832615Y-94990393D01*
X101878749Y-94991128D01*
X101917779Y-94992074D01*
X101950351Y-94993256D01*
X101977113Y-94994699D01*
X101998713Y-94996430D01*
X102015798Y-94998473D01*
X102029016Y-95000855D01*
X102039014Y-95003601D01*
X102046439Y-95006736D01*
X102051940Y-95010287D01*
X102056164Y-95014279D01*
X102059758Y-95018737D01*
X102063371Y-95023688D01*
X102067648Y-95029156D01*
X102076772Y-95041795D01*
X102083314Y-95059675D01*
X102085039Y-95084251D01*
X102084731Y-95094013D01*
X102077057Y-95129105D01*
X102058909Y-95156117D01*
X102030070Y-95175408D01*
X102029300Y-95175755D01*
X102023049Y-95178288D01*
X102015821Y-95180453D01*
X102006590Y-95182279D01*
X101994330Y-95183794D01*
X101978012Y-95185029D01*
X101956611Y-95186012D01*
X101929099Y-95186773D01*
X101894450Y-95187341D01*
X101851637Y-95187746D01*
X101799633Y-95188017D01*
X101737411Y-95188184D01*
X101663944Y-95188275D01*
X101578205Y-95188320D01*
X101154462Y-95188466D01*
X101152656Y-95610207D01*
X101152450Y-95657707D01*
X101152087Y-95736258D01*
X101151719Y-95803058D01*
X101151309Y-95859116D01*
X101150822Y-95905438D01*
X101150224Y-95943030D01*
X101149478Y-95972899D01*
X101148548Y-95996052D01*
X101147400Y-96013496D01*
X101145998Y-96026236D01*
X101144307Y-96035281D01*
X101142290Y-96041637D01*
X101139913Y-96046310D01*
X101137140Y-96050307D01*
X101135169Y-96052908D01*
X101111419Y-96077679D01*
X101085620Y-96091210D01*
X101054435Y-96095316D01*
X101051579Y-96095290D01*
X101020965Y-96090475D01*
X100995461Y-96076086D01*
X100971731Y-96050307D01*
X100970187Y-96048178D01*
X100967631Y-96043943D01*
X100965452Y-96038489D01*
X100963615Y-96030811D01*
X100962084Y-96019902D01*
X100960823Y-96004755D01*
X100959797Y-95984363D01*
X100958971Y-95957720D01*
X100958308Y-95923819D01*
X100957775Y-95881653D01*
X100957334Y-95830215D01*
X100956951Y-95768500D01*
X100956589Y-95695499D01*
X100956215Y-95610207D01*
X100954408Y-95188466D01*
X100530049Y-95188466D01*
X100105689Y-95188466D01*
X100077085Y-95173339D01*
X100067926Y-95167900D01*
X100043189Y-95144591D01*
X100028507Y-95115957D01*
X100023962Y-95084702D01*
X100029634Y-95053530D01*
X100045604Y-95025145D01*
X100071953Y-95002252D01*
X100073521Y-95001319D01*
X100076898Y-94999592D01*
X100081153Y-94998035D01*
X100086939Y-94996639D01*
X100094911Y-94995396D01*
X100105722Y-94994296D01*
X100120026Y-94993330D01*
X100138477Y-94992490D01*
X100161727Y-94991768D01*
X100190432Y-94991153D01*
X100225244Y-94990638D01*
X100266818Y-94990214D01*
X100315806Y-94989871D01*
X100372864Y-94989602D01*
X100438644Y-94989396D01*
X100513800Y-94989246D01*
X100598986Y-94989142D01*
X100694856Y-94989075D01*
X100802063Y-94989038D01*
X100921260Y-94989021D01*
X101053103Y-94989014D01*
X101130053Y-94989007D01*
X101256339Y-94988982D01*
X101370340Y-94988963D01*
X101472703Y-94988974D01*
G37*
D11*
%TO.C,J8*%
X98136000Y-79474000D02*
X99136000Y-79474000D01*
X98136000Y-86594000D02*
X99136000Y-86594000D01*
X98136000Y-86844000D02*
X99136000Y-86844000D01*
X99136000Y-79224000D02*
X98136000Y-79224000D01*
X99136000Y-86844000D02*
X99136000Y-79224000D01*
X99136000Y-86844000D02*
X99666000Y-86594000D01*
X99666000Y-79474000D02*
X99136000Y-79224000D01*
X99666000Y-86594000D02*
X99666000Y-79474000D01*
X103126000Y-88514000D02*
X99126000Y-88514000D01*
X103556000Y-78424000D02*
X104156000Y-78424000D01*
X103556000Y-80024000D02*
X103556000Y-78424000D01*
X103556000Y-80964000D02*
X104156000Y-80964000D01*
X103556000Y-82564000D02*
X103556000Y-80964000D01*
X103556000Y-83504000D02*
X104156000Y-83504000D01*
X103556000Y-85104000D02*
X103556000Y-83504000D01*
X103556000Y-86044000D02*
X104156000Y-86044000D01*
X103556000Y-87644000D02*
X103556000Y-86044000D01*
X104156000Y-80024000D02*
X103556000Y-80024000D01*
X104156000Y-82564000D02*
X103556000Y-82564000D01*
X104156000Y-85104000D02*
X103556000Y-85104000D01*
X104156000Y-87644000D02*
X103556000Y-87644000D01*
X104156000Y-88224000D02*
X98136000Y-88224000D01*
X98136000Y-77844000D01*
X104156000Y-77844000D01*
X104156000Y-88224000D01*
%TO.C,JP1*%
X134282447Y-102019919D02*
X134282447Y-104819919D01*
X134982447Y-105469919D02*
X135582447Y-105469919D01*
X135582447Y-101369919D02*
X134982447Y-101369919D01*
X136282447Y-104819919D02*
X136282447Y-102019919D01*
X134282447Y-102069919D02*
G75*
G02*
X134982447Y-101369919I699999J1D01*
G01*
X134982447Y-105469919D02*
G75*
G02*
X134282447Y-104769919I0J700000D01*
G01*
X135582447Y-101369919D02*
G75*
G02*
X136282447Y-102069919I1J-699999D01*
G01*
X136282447Y-104769919D02*
G75*
G02*
X135582447Y-105469919I-700000J0D01*
G01*
%TO.C,C3*%
X114366000Y-89735349D02*
X122526000Y-89735349D01*
X114366000Y-89775349D02*
X122526000Y-89775349D01*
X114366000Y-89815349D02*
X122526000Y-89815349D01*
X114367000Y-89855349D02*
X122525000Y-89855349D01*
X114369000Y-89895349D02*
X122523000Y-89895349D01*
X114370000Y-89935349D02*
X122522000Y-89935349D01*
X114371999Y-89975349D02*
X122520001Y-89975349D01*
X114375000Y-90015349D02*
X122517000Y-90015349D01*
X114378001Y-90055349D02*
X122513999Y-90055349D01*
X114381000Y-90095349D02*
X122511000Y-90095349D01*
X114385000Y-90135349D02*
X122507000Y-90135349D01*
X114389000Y-90175349D02*
X122503000Y-90175349D01*
X114394000Y-90215349D02*
X122498000Y-90215349D01*
X114398000Y-90255349D02*
X122494000Y-90255349D01*
X114404000Y-90295349D02*
X122488000Y-90295349D01*
X114409000Y-90335349D02*
X122483000Y-90335349D01*
X114416000Y-90375349D02*
X122476000Y-90375349D01*
X114422000Y-90415349D02*
X122470000Y-90415349D01*
X114429000Y-90456349D02*
X117406000Y-90456349D01*
X114436000Y-90496349D02*
X117406000Y-90496349D01*
X114444000Y-90536349D02*
X117406000Y-90536348D01*
X114452000Y-90576349D02*
X117406000Y-90576349D01*
X114461000Y-90616348D02*
X117406000Y-90616349D01*
X114470000Y-90656349D02*
X117406000Y-90656349D01*
X114479000Y-90696349D02*
X117405999Y-90696349D01*
X114489000Y-90736349D02*
X117406000Y-90736349D01*
X114499001Y-90776349D02*
X117406000Y-90776349D01*
X114510000Y-90816349D02*
X117406000Y-90816349D01*
X114520999Y-90856349D02*
X117406000Y-90856350D01*
X114532000Y-90896349D02*
X117406000Y-90896349D01*
X114544000Y-90936349D02*
X117406000Y-90936349D01*
X114557000Y-90976349D02*
X117406000Y-90976348D01*
X114569000Y-91016349D02*
X117406000Y-91016349D01*
X114583000Y-91056348D02*
X117406000Y-91056349D01*
X114596000Y-91096349D02*
X117406000Y-91096349D01*
X114611000Y-91136349D02*
X117405999Y-91136349D01*
X114625000Y-91176349D02*
X117406000Y-91176349D01*
X114641000Y-91216349D02*
X117406000Y-91216349D01*
X114656000Y-91256349D02*
X117406000Y-91256349D01*
X114672000Y-91296350D02*
X117406000Y-91296350D01*
X114689000Y-91336349D02*
X117406000Y-91336349D01*
X114706001Y-91376349D02*
X117406000Y-91376349D01*
X114724000Y-91416349D02*
X117406000Y-91416348D01*
X114742000Y-91456349D02*
X117406000Y-91456350D01*
X114759999Y-91496349D02*
X117406000Y-91496349D01*
X114780000Y-91536349D02*
X117406000Y-91536349D01*
X114799000Y-91576349D02*
X117405999Y-91576349D01*
X114819000Y-91616349D02*
X117406000Y-91616349D01*
X114840000Y-91656349D02*
X117406000Y-91656349D01*
X114862000Y-91696349D02*
X117406000Y-91696349D01*
X114884000Y-91736349D02*
X117405999Y-91736349D01*
X114906000Y-91776349D02*
X117406000Y-91776349D01*
X114929000Y-91816350D02*
X117406000Y-91816349D01*
X114953000Y-91856349D02*
X117406000Y-91856349D01*
X114977000Y-91896349D02*
X117406000Y-91896350D01*
X115002000Y-91936349D02*
X117406000Y-91936349D01*
X115028000Y-91976349D02*
X117406000Y-91976349D01*
X115054000Y-92016349D02*
X117406000Y-92016348D01*
X115081000Y-92056349D02*
X117406000Y-92056349D01*
X115108001Y-92096349D02*
X117406000Y-92096349D01*
X115137000Y-92136349D02*
X117406000Y-92136349D01*
X115166000Y-92176349D02*
X117405999Y-92176349D01*
X115196000Y-92216349D02*
X117406000Y-92216349D01*
X115226000Y-92256349D02*
X117406000Y-92256349D01*
X115257000Y-92296349D02*
X117406000Y-92296349D01*
X115290000Y-92336350D02*
X117406000Y-92336350D01*
X115322000Y-92376348D02*
X117406000Y-92376349D01*
X115356000Y-92416349D02*
X117406000Y-92416349D01*
X115391000Y-92456349D02*
X117406000Y-92456348D01*
X115427000Y-92496349D02*
X117406000Y-92496349D01*
X115463000Y-92536348D02*
X121429000Y-92536348D01*
X115501000Y-92576349D02*
X121391000Y-92576349D01*
X115539000Y-92616349D02*
X121353000Y-92616349D01*
X115579000Y-92656349D02*
X121313000Y-92656349D01*
X115620000Y-92696349D02*
X121272000Y-92696349D01*
X115662000Y-92736349D02*
X121230000Y-92736349D01*
X115705000Y-92776349D02*
X121187000Y-92776349D01*
X115731000Y-85725651D02*
X116531000Y-85725651D01*
X115749000Y-92816349D02*
X121143000Y-92816349D01*
X115795000Y-92856349D02*
X121097000Y-92856349D01*
X115842000Y-92896348D02*
X121050000Y-92896348D01*
X115890000Y-92936349D02*
X121002000Y-92936349D01*
X115941000Y-92976348D02*
X120951000Y-92976348D01*
X115992000Y-93016349D02*
X120900000Y-93016349D01*
X116046000Y-93056349D02*
X120846000Y-93056349D01*
X116101000Y-93096349D02*
X120791000Y-93096349D01*
X116131000Y-85325651D02*
X116131000Y-86125651D01*
X116159000Y-93136349D02*
X120733000Y-93136349D01*
X116218000Y-93176349D02*
X120674000Y-93176349D01*
X116280000Y-93216349D02*
X120612000Y-93216349D01*
X116344000Y-93256349D02*
X120548000Y-93256349D01*
X116412000Y-93296349D02*
X120480000Y-93296349D01*
X116482000Y-93336349D02*
X120410000Y-93336349D01*
X116556000Y-93376349D02*
X120336000Y-93376349D01*
X116632999Y-93416349D02*
X120259001Y-93416349D01*
X116715000Y-93456349D02*
X120177000Y-93456349D01*
X116801000Y-93496349D02*
X120091000Y-93496349D01*
X116894000Y-93536349D02*
X119998000Y-93536349D01*
X116993000Y-93576349D02*
X119899000Y-93576349D01*
X117100000Y-93616349D02*
X119792000Y-93616349D01*
X117217000Y-93656349D02*
X119675000Y-93656349D01*
X117348000Y-93696349D02*
X119544000Y-93696349D01*
X117498000Y-93736349D02*
X119394000Y-93736349D01*
X117678000Y-93776348D02*
X119214000Y-93776348D01*
X117913000Y-93816350D02*
X118979000Y-93816350D01*
X119486000Y-90456349D02*
X122463000Y-90456349D01*
X119486000Y-90496349D02*
X122456000Y-90496349D01*
X119486000Y-90536348D02*
X122448000Y-90536349D01*
X119486000Y-90576349D02*
X122440000Y-90576349D01*
X119486000Y-90616349D02*
X122431000Y-90616348D01*
X119486000Y-90656349D02*
X122422000Y-90656349D01*
X119486000Y-90736349D02*
X122403000Y-90736349D01*
X119486000Y-90776349D02*
X122392999Y-90776349D01*
X119486000Y-90816349D02*
X122382000Y-90816349D01*
X119486000Y-90856350D02*
X122371001Y-90856349D01*
X119486000Y-90896349D02*
X122360000Y-90896349D01*
X119486000Y-90936349D02*
X122348000Y-90936349D01*
X119486000Y-90976348D02*
X122335000Y-90976349D01*
X119486000Y-91016349D02*
X122323000Y-91016349D01*
X119486000Y-91056349D02*
X122309000Y-91056348D01*
X119486000Y-91096349D02*
X122296000Y-91096349D01*
X119486000Y-91176349D02*
X122267000Y-91176349D01*
X119486000Y-91216349D02*
X122251000Y-91216349D01*
X119486000Y-91256349D02*
X122236000Y-91256349D01*
X119486000Y-91296350D02*
X122220000Y-91296350D01*
X119486000Y-91336349D02*
X122203000Y-91336349D01*
X119486000Y-91376349D02*
X122185999Y-91376349D01*
X119486000Y-91416348D02*
X122168000Y-91416349D01*
X119486000Y-91456350D02*
X122150000Y-91456349D01*
X119486000Y-91496349D02*
X122132001Y-91496349D01*
X119486000Y-91536349D02*
X122112000Y-91536349D01*
X119486000Y-91616349D02*
X122073000Y-91616349D01*
X119486000Y-91656349D02*
X122052000Y-91656349D01*
X119486000Y-91696349D02*
X122030000Y-91696349D01*
X119486000Y-91776349D02*
X121986000Y-91776349D01*
X119486000Y-91816349D02*
X121963000Y-91816350D01*
X119486000Y-91856349D02*
X121939000Y-91856349D01*
X119486000Y-91896350D02*
X121915000Y-91896349D01*
X119486000Y-91936349D02*
X121890000Y-91936349D01*
X119486000Y-91976349D02*
X121864000Y-91976349D01*
X119486000Y-92016348D02*
X121838000Y-92016349D01*
X119486000Y-92056349D02*
X121811000Y-92056349D01*
X119486000Y-92096349D02*
X121783999Y-92096349D01*
X119486000Y-92136349D02*
X121755000Y-92136349D01*
X119486000Y-92216349D02*
X121696000Y-92216349D01*
X119486000Y-92256349D02*
X121666000Y-92256349D01*
X119486000Y-92296349D02*
X121635000Y-92296349D01*
X119486000Y-92336350D02*
X121602000Y-92336350D01*
X119486000Y-92376349D02*
X121570000Y-92376348D01*
X119486000Y-92416349D02*
X121536000Y-92416349D01*
X119486000Y-92456348D02*
X121501000Y-92456349D01*
X119486000Y-92496349D02*
X121465000Y-92496349D01*
X119486001Y-90696349D02*
X122413000Y-90696349D01*
X119486001Y-91136349D02*
X122281000Y-91136349D01*
X119486001Y-91576349D02*
X122093000Y-91576349D01*
X119486001Y-91736349D02*
X122008000Y-91736349D01*
X119486001Y-92176349D02*
X121726000Y-92176349D01*
X122566000Y-89735349D02*
G75*
G02*
X114326000Y-89735349I-4120000J0D01*
G01*
X114326000Y-89735349D02*
G75*
G02*
X122566000Y-89735349I4120000J0D01*
G01*
%TO.C,J6*%
X91980000Y-70980000D02*
X91980000Y-66980000D01*
X92850000Y-71410000D02*
X94450000Y-71410000D01*
X92850000Y-72010000D02*
X92850000Y-71410000D01*
X93650000Y-65990000D02*
X93650000Y-66990001D01*
X93650000Y-66990001D02*
X93900000Y-67520000D01*
X93650000Y-66990001D02*
X106350001Y-66990000D01*
X93900000Y-65990000D02*
X93900000Y-66990000D01*
X93900000Y-67520000D02*
X106100000Y-67520001D01*
X94450000Y-71410000D02*
X94450000Y-72010000D01*
X95390000Y-71410000D02*
X96990000Y-71410000D01*
X95390000Y-72010000D02*
X95390000Y-71410000D01*
X96990000Y-71410000D02*
X96990000Y-72010000D01*
X97930000Y-72010001D02*
X97930001Y-71410000D01*
X97930001Y-71410000D02*
X99529999Y-71410000D01*
X99529999Y-71410000D02*
X99529999Y-72010000D01*
X100470000Y-71410000D02*
X102070001Y-71410000D01*
X100470000Y-72010000D02*
X100470000Y-71410000D01*
X102070001Y-71410000D02*
X102070001Y-72010000D01*
X103010000Y-71410000D02*
X104610000Y-71410000D01*
X103010000Y-72010000D02*
X103010000Y-71410000D01*
X104610000Y-71410000D02*
X104610000Y-72010000D01*
X105550000Y-71410000D02*
X107150000Y-71410000D01*
X105550000Y-72010000D02*
X105550000Y-71410000D01*
X106100000Y-65990000D02*
X106100000Y-66990000D01*
X106100000Y-67520001D02*
X106350001Y-66990000D01*
X106350001Y-66990000D02*
X106350000Y-65990000D01*
X107150000Y-71410000D02*
X107150000Y-72010000D01*
X107730000Y-72010000D02*
X92270000Y-72010000D01*
X92270000Y-65990000D01*
X107730000Y-65990000D01*
X107730000Y-72010000D01*
%TO.C,JP4*%
X123704000Y-101992725D02*
X123704000Y-104792725D01*
X124404000Y-105442725D02*
X125004000Y-105442725D01*
X125004000Y-101342725D02*
X124404000Y-101342725D01*
X125704000Y-104792725D02*
X125704000Y-101992725D01*
X123704000Y-102042725D02*
G75*
G02*
X124404000Y-101342725I700000J0D01*
G01*
X124404000Y-105442725D02*
G75*
G02*
X123704000Y-104742725I-1J699999D01*
G01*
X125004000Y-101342725D02*
G75*
G02*
X125704000Y-102042725I0J-700000D01*
G01*
X125704000Y-104742725D02*
G75*
G02*
X125004000Y-105442725I-699999J-1D01*
G01*
%TO.C,R10*%
X87400936Y-112350000D02*
X88855064Y-112350000D01*
X87400936Y-114170000D02*
X88855064Y-114170000D01*
%TO.C,J12*%
X109520000Y-71000000D02*
X109520000Y-67000000D01*
X109810000Y-66010000D02*
X120190000Y-66010000D01*
X109810000Y-72030000D02*
X109810000Y-66010000D01*
X110390000Y-71430000D02*
X111990000Y-71430000D01*
X110390000Y-72030000D02*
X110390000Y-71430000D01*
X111190000Y-66010000D02*
X111190000Y-67010001D01*
X111190000Y-67010001D02*
X111440000Y-67540000D01*
X111190000Y-67010001D02*
X118810000Y-67010000D01*
X111440000Y-66010000D02*
X111440000Y-67010000D01*
X111440000Y-67540000D02*
X118560000Y-67540000D01*
X111990000Y-71430000D02*
X111990000Y-72030000D01*
X112930000Y-71430000D02*
X114530000Y-71430000D01*
X112930000Y-72030000D02*
X112930000Y-71430000D01*
X114530000Y-71430000D02*
X114530000Y-72030000D01*
X115470000Y-72030001D02*
X115470001Y-71430000D01*
X115470001Y-71430000D02*
X117069999Y-71430000D01*
X117069999Y-71430000D02*
X117069999Y-72030000D01*
X118010000Y-71430000D02*
X119610001Y-71430000D01*
X118010000Y-72030000D02*
X118010000Y-71430000D01*
X118560000Y-66010000D02*
X118559999Y-67010000D01*
X118560000Y-67540000D02*
X118810000Y-67010000D01*
X118810000Y-67010000D02*
X118810000Y-66010000D01*
X119610001Y-71430000D02*
X119610001Y-72030000D01*
X120190000Y-66010000D02*
X120190000Y-72030001D01*
X120190000Y-72030001D02*
X109810000Y-72030000D01*
D12*
%TO.C,kibuzzard-6998F9AD*%
G36*
X102591594Y-114389157D02*
G01*
X102591594Y-114403373D01*
X102570916Y-114494488D01*
X102514050Y-114553939D01*
X102428105Y-114586249D01*
X102375924Y-114593519D01*
X102318897Y-114595942D01*
X102218089Y-114588188D01*
X102131498Y-114561047D01*
X102071401Y-114508058D01*
X102048783Y-114421467D01*
X102049430Y-114398204D01*
X102052661Y-114374940D01*
X102590302Y-114374940D01*
X102591594Y-114389157D01*
G37*
G36*
X102844045Y-113740369D02*
G01*
X102844045Y-114386572D01*
X102844045Y-114757493D01*
X102844045Y-115026744D01*
X102834041Y-115128313D01*
X102804414Y-115225979D01*
X102756304Y-115315988D01*
X102691557Y-115394882D01*
X102612664Y-115459628D01*
X102522654Y-115507739D01*
X102424989Y-115537365D01*
X102323420Y-115547369D01*
X102221851Y-115537365D01*
X102124186Y-115507739D01*
X102034176Y-115459628D01*
X101955283Y-115394882D01*
X101890536Y-115315988D01*
X101842426Y-115225979D01*
X101812799Y-115128313D01*
X101802795Y-115026744D01*
X101802795Y-114757493D01*
X101802795Y-114407251D01*
X101910496Y-114407251D01*
X101916312Y-114482695D01*
X101933759Y-114551354D01*
X101963646Y-114611612D01*
X102006780Y-114661855D01*
X102063323Y-114702081D01*
X102133436Y-114732291D01*
X102218250Y-114751192D01*
X102318897Y-114757493D01*
X102421804Y-114750546D01*
X102508234Y-114729706D01*
X102579155Y-114696588D01*
X102635536Y-114652808D01*
X102678024Y-114599012D01*
X102707265Y-114535845D01*
X102724228Y-114464601D01*
X102729882Y-114386572D01*
X102725359Y-114303212D01*
X102710496Y-114215974D01*
X101929882Y-114215974D01*
X101914373Y-114318075D01*
X101910496Y-114407251D01*
X101802795Y-114407251D01*
X101802795Y-113516782D01*
X101919543Y-113516782D01*
X101919543Y-113684795D01*
X101986586Y-113694488D01*
X102063646Y-113708058D01*
X102147006Y-113724375D01*
X102232952Y-113742307D01*
X102319543Y-113761693D01*
X102404842Y-113782372D01*
X102485132Y-113803535D01*
X102556699Y-113824375D01*
X102486102Y-113845054D01*
X102406134Y-113865732D01*
X102320835Y-113885764D01*
X102234244Y-113904504D01*
X102148137Y-113921952D01*
X102064292Y-113938107D01*
X101986748Y-113952323D01*
X101919543Y-113963955D01*
X101919543Y-114130675D01*
X102001611Y-114113390D01*
X102092725Y-114092549D01*
X102190787Y-114068317D01*
X102293695Y-114040853D01*
X102364346Y-114020821D01*
X102435859Y-113999496D01*
X102508234Y-113976879D01*
X102580250Y-113953329D01*
X102650686Y-113929204D01*
X102719543Y-113904504D01*
X102719543Y-113740369D01*
X102624551Y-113708381D01*
X102517927Y-113674456D01*
X102443039Y-113651623D01*
X102368295Y-113629652D01*
X102293695Y-113608543D01*
X102220530Y-113588583D01*
X102150094Y-113570058D01*
X102082386Y-113552970D01*
X101991918Y-113531645D01*
X101919543Y-113516782D01*
X101802795Y-113516782D01*
X101802795Y-112993357D01*
X101919543Y-112993357D01*
X101919543Y-113401758D01*
X102051368Y-113401758D01*
X102051368Y-113126475D01*
X102137960Y-113120013D01*
X102211627Y-113113551D01*
X102224838Y-113211343D01*
X102250686Y-113291042D01*
X102289171Y-113352646D01*
X102340006Y-113396445D01*
X102402903Y-113422724D01*
X102477863Y-113431483D01*
X102580609Y-113412097D01*
X102662677Y-113352646D01*
X102693695Y-113307735D01*
X102716958Y-113253131D01*
X102731498Y-113188834D01*
X102736344Y-113114843D01*
X102732467Y-113051516D01*
X102722774Y-112989480D01*
X102709204Y-112935845D01*
X102694987Y-112899012D01*
X102563162Y-112931322D01*
X102589010Y-113003696D01*
X102597733Y-113053131D01*
X102600641Y-113113551D01*
X102590302Y-113190449D01*
X102563808Y-113238268D01*
X102526974Y-113262178D01*
X102484325Y-113268640D01*
X102422935Y-113257654D01*
X102375116Y-113213713D01*
X102344099Y-113120013D01*
X102335859Y-113049900D01*
X102333113Y-112961047D01*
X102225682Y-112972679D01*
X102120512Y-112981726D01*
X102018250Y-112988511D01*
X101919543Y-112993357D01*
X101802795Y-112993357D01*
X101802795Y-112899012D01*
X101802795Y-112629760D01*
X101802795Y-112282677D01*
X102323420Y-112629760D01*
X102844045Y-112282677D01*
X102844045Y-112629760D01*
X102844045Y-112899012D01*
X102844045Y-113114843D01*
X102844045Y-113740369D01*
G37*
D11*
%TO.C,D3*%
X91558000Y-87800500D02*
X91558000Y-80790500D01*
X94858000Y-87800500D02*
X91558000Y-87800500D01*
X94858000Y-87800500D02*
X94858000Y-80790500D01*
%TO.C,J3*%
X98482000Y-96152001D02*
X98482000Y-101291999D01*
X98482000Y-103892000D02*
X98482000Y-102562000D01*
X99812000Y-103892000D02*
X98482000Y-103892000D01*
X101142000Y-96152001D02*
X98482000Y-96152001D01*
X101142000Y-96152001D02*
X101142000Y-101291999D01*
X101142000Y-101291999D02*
X98482000Y-101291999D01*
%TO.C,J2*%
X101022000Y-96167001D02*
X101022000Y-101306999D01*
X101022000Y-103907000D02*
X101022000Y-102577000D01*
X102352000Y-103907000D02*
X101022000Y-103907000D01*
X103682000Y-96167001D02*
X101022000Y-96167001D01*
X103682000Y-96167001D02*
X103682000Y-101306999D01*
X103682000Y-101306999D02*
X101022000Y-101306999D01*
D12*
%TO.C,kibuzzard-670C07A3*%
G36*
X110479701Y-113999751D02*
G01*
X110479701Y-114171641D01*
X110479701Y-114440892D01*
X110469945Y-114539940D01*
X110441054Y-114635181D01*
X110394138Y-114722956D01*
X110330999Y-114799891D01*
X110254063Y-114863030D01*
X110166289Y-114909946D01*
X110071047Y-114938838D01*
X109972000Y-114948593D01*
X109872953Y-114938838D01*
X109777711Y-114909946D01*
X109689937Y-114863030D01*
X109613001Y-114799891D01*
X109549862Y-114722956D01*
X109502946Y-114635181D01*
X109474055Y-114539940D01*
X109464299Y-114440892D01*
X109464299Y-114171641D01*
X109464299Y-113566794D01*
X109572000Y-113566794D01*
X109572000Y-113738684D01*
X109827897Y-113865340D01*
X109572000Y-113998458D01*
X109572000Y-114158717D01*
X109945506Y-113954516D01*
X110002372Y-113989088D01*
X110061822Y-114023014D01*
X110121758Y-114055486D01*
X110180078Y-114085696D01*
X110235651Y-114112998D01*
X110287347Y-114136746D01*
X110372000Y-114171641D01*
X110372000Y-113999751D01*
X110302533Y-113972449D01*
X110225958Y-113939654D01*
X110145829Y-113903305D01*
X110065700Y-113865340D01*
X110143405Y-113827861D01*
X110224019Y-113790381D01*
X110302048Y-113755486D01*
X110372000Y-113725760D01*
X110372000Y-113553870D01*
X110287994Y-113591996D01*
X110236943Y-113618491D01*
X110182016Y-113647570D01*
X110124342Y-113678749D01*
X110065053Y-113711544D01*
X110006087Y-113744500D01*
X109949383Y-113776164D01*
X109572000Y-113566794D01*
X109464299Y-113566794D01*
X109464299Y-112925760D01*
X109572000Y-112925760D01*
X109572000Y-113507344D01*
X109703826Y-113507344D01*
X109703826Y-113296681D01*
X110372000Y-113296681D01*
X110372000Y-113136423D01*
X109703826Y-113136423D01*
X109703826Y-112925760D01*
X109572000Y-112925760D01*
X109464299Y-112925760D01*
X109464299Y-112333407D01*
X110479701Y-112333407D01*
X110479701Y-112925760D01*
X110479701Y-113296681D01*
X110479701Y-113999751D01*
G37*
D11*
%TO.C,C4*%
X139928000Y-89735349D02*
X148088000Y-89735349D01*
X139928000Y-89775349D02*
X148088000Y-89775349D01*
X139928000Y-89815349D02*
X148088000Y-89815349D01*
X139929000Y-89855349D02*
X148087000Y-89855349D01*
X139931000Y-89895349D02*
X148085000Y-89895349D01*
X139932000Y-89935349D02*
X148084000Y-89935349D01*
X139933999Y-89975349D02*
X148082001Y-89975349D01*
X139937000Y-90015349D02*
X148079000Y-90015349D01*
X139940001Y-90055349D02*
X148075999Y-90055349D01*
X139943000Y-90095349D02*
X148073000Y-90095349D01*
X139947000Y-90135349D02*
X148069000Y-90135349D01*
X139951000Y-90175349D02*
X148065000Y-90175349D01*
X139956000Y-90215349D02*
X148060000Y-90215349D01*
X139960000Y-90255349D02*
X148056000Y-90255349D01*
X139966000Y-90295349D02*
X148050000Y-90295349D01*
X139971000Y-90335349D02*
X148045000Y-90335349D01*
X139978000Y-90375349D02*
X148038000Y-90375349D01*
X139984000Y-90415349D02*
X148032000Y-90415349D01*
X139991000Y-90456349D02*
X142968000Y-90456349D01*
X139998000Y-90496349D02*
X142968000Y-90496349D01*
X140006000Y-90536349D02*
X142968000Y-90536348D01*
X140014000Y-90576349D02*
X142968000Y-90576349D01*
X140023000Y-90616348D02*
X142968000Y-90616349D01*
X140032000Y-90656349D02*
X142968000Y-90656349D01*
X140041000Y-90696349D02*
X142967999Y-90696349D01*
X140051000Y-90736349D02*
X142968000Y-90736349D01*
X140061001Y-90776349D02*
X142968000Y-90776349D01*
X140072000Y-90816349D02*
X142968000Y-90816349D01*
X140082999Y-90856349D02*
X142968000Y-90856350D01*
X140094000Y-90896349D02*
X142968000Y-90896349D01*
X140106000Y-90936349D02*
X142968000Y-90936349D01*
X140119000Y-90976349D02*
X142968000Y-90976348D01*
X140131000Y-91016349D02*
X142968000Y-91016349D01*
X140145000Y-91056348D02*
X142968000Y-91056349D01*
X140158000Y-91096349D02*
X142968000Y-91096349D01*
X140173000Y-91136349D02*
X142967999Y-91136349D01*
X140187000Y-91176349D02*
X142968000Y-91176349D01*
X140203000Y-91216349D02*
X142968000Y-91216349D01*
X140218000Y-91256349D02*
X142968000Y-91256349D01*
X140234000Y-91296350D02*
X142968000Y-91296350D01*
X140251000Y-91336349D02*
X142968000Y-91336349D01*
X140268001Y-91376349D02*
X142968000Y-91376349D01*
X140286000Y-91416349D02*
X142968000Y-91416348D01*
X140304000Y-91456349D02*
X142968000Y-91456350D01*
X140321999Y-91496349D02*
X142968000Y-91496349D01*
X140342000Y-91536349D02*
X142968000Y-91536349D01*
X140361000Y-91576349D02*
X142967999Y-91576349D01*
X140381000Y-91616349D02*
X142968000Y-91616349D01*
X140402000Y-91656349D02*
X142968000Y-91656349D01*
X140424000Y-91696349D02*
X142968000Y-91696349D01*
X140446000Y-91736349D02*
X142967999Y-91736349D01*
X140468000Y-91776349D02*
X142968000Y-91776349D01*
X140491000Y-91816350D02*
X142968000Y-91816349D01*
X140515000Y-91856349D02*
X142968000Y-91856349D01*
X140539000Y-91896349D02*
X142968000Y-91896350D01*
X140564000Y-91936349D02*
X142968000Y-91936349D01*
X140590000Y-91976349D02*
X142968000Y-91976349D01*
X140616000Y-92016349D02*
X142968000Y-92016348D01*
X140643000Y-92056349D02*
X142968000Y-92056349D01*
X140670001Y-92096349D02*
X142968000Y-92096349D01*
X140699000Y-92136349D02*
X142968000Y-92136349D01*
X140728000Y-92176349D02*
X142967999Y-92176349D01*
X140758000Y-92216349D02*
X142968000Y-92216349D01*
X140788000Y-92256349D02*
X142968000Y-92256349D01*
X140819000Y-92296349D02*
X142968000Y-92296349D01*
X140852000Y-92336350D02*
X142968000Y-92336350D01*
X140884000Y-92376348D02*
X142968000Y-92376349D01*
X140918000Y-92416349D02*
X142968000Y-92416349D01*
X140953000Y-92456349D02*
X142968000Y-92456348D01*
X140989000Y-92496349D02*
X142968000Y-92496349D01*
X141025000Y-92536348D02*
X146991000Y-92536348D01*
X141063000Y-92576349D02*
X146953000Y-92576349D01*
X141101000Y-92616349D02*
X146915000Y-92616349D01*
X141141000Y-92656349D02*
X146875000Y-92656349D01*
X141182000Y-92696349D02*
X146834000Y-92696349D01*
X141224000Y-92736349D02*
X146792000Y-92736349D01*
X141267000Y-92776349D02*
X146749000Y-92776349D01*
X141293000Y-85725651D02*
X142093000Y-85725651D01*
X141311000Y-92816349D02*
X146705000Y-92816349D01*
X141357000Y-92856349D02*
X146659000Y-92856349D01*
X141404000Y-92896348D02*
X146612000Y-92896348D01*
X141452000Y-92936349D02*
X146564000Y-92936349D01*
X141503000Y-92976348D02*
X146513000Y-92976348D01*
X141554000Y-93016349D02*
X146462000Y-93016349D01*
X141608000Y-93056349D02*
X146408000Y-93056349D01*
X141663000Y-93096349D02*
X146353000Y-93096349D01*
X141693000Y-85325651D02*
X141693000Y-86125651D01*
X141721000Y-93136349D02*
X146295000Y-93136349D01*
X141780000Y-93176349D02*
X146236000Y-93176349D01*
X141842000Y-93216349D02*
X146174000Y-93216349D01*
X141906000Y-93256349D02*
X146110000Y-93256349D01*
X141974000Y-93296349D02*
X146042000Y-93296349D01*
X142044000Y-93336349D02*
X145972000Y-93336349D01*
X142118000Y-93376349D02*
X145898000Y-93376349D01*
X142194999Y-93416349D02*
X145821001Y-93416349D01*
X142277000Y-93456349D02*
X145739000Y-93456349D01*
X142363000Y-93496349D02*
X145653000Y-93496349D01*
X142456000Y-93536349D02*
X145560000Y-93536349D01*
X142555000Y-93576349D02*
X145461000Y-93576349D01*
X142662000Y-93616349D02*
X145354000Y-93616349D01*
X142779000Y-93656349D02*
X145237000Y-93656349D01*
X142910000Y-93696349D02*
X145106000Y-93696349D01*
X143060000Y-93736349D02*
X144956000Y-93736349D01*
X143240000Y-93776348D02*
X144776000Y-93776348D01*
X143475000Y-93816350D02*
X144541000Y-93816350D01*
X145048000Y-90456349D02*
X148025000Y-90456349D01*
X145048000Y-90496349D02*
X148018000Y-90496349D01*
X145048000Y-90536348D02*
X148010000Y-90536349D01*
X145048000Y-90576349D02*
X148002000Y-90576349D01*
X145048000Y-90616349D02*
X147993000Y-90616348D01*
X145048000Y-90656349D02*
X147984000Y-90656349D01*
X145048000Y-90736349D02*
X147965000Y-90736349D01*
X145048000Y-90776349D02*
X147954999Y-90776349D01*
X145048000Y-90816349D02*
X147944000Y-90816349D01*
X145048000Y-90856350D02*
X147933001Y-90856349D01*
X145048000Y-90896349D02*
X147922000Y-90896349D01*
X145048000Y-90936349D02*
X147910000Y-90936349D01*
X145048000Y-90976348D02*
X147897000Y-90976349D01*
X145048000Y-91016349D02*
X147885000Y-91016349D01*
X145048000Y-91056349D02*
X147871000Y-91056348D01*
X145048000Y-91096349D02*
X147858000Y-91096349D01*
X145048000Y-91176349D02*
X147829000Y-91176349D01*
X145048000Y-91216349D02*
X147813000Y-91216349D01*
X145048000Y-91256349D02*
X147798000Y-91256349D01*
X145048000Y-91296350D02*
X147782000Y-91296350D01*
X145048000Y-91336349D02*
X147765000Y-91336349D01*
X145048000Y-91376349D02*
X147747999Y-91376349D01*
X145048000Y-91416348D02*
X147730000Y-91416349D01*
X145048000Y-91456350D02*
X147712000Y-91456349D01*
X145048000Y-91496349D02*
X147694001Y-91496349D01*
X145048000Y-91536349D02*
X147674000Y-91536349D01*
X145048000Y-91616349D02*
X147635000Y-91616349D01*
X145048000Y-91656349D02*
X147614000Y-91656349D01*
X145048000Y-91696349D02*
X147592000Y-91696349D01*
X145048000Y-91776349D02*
X147548000Y-91776349D01*
X145048000Y-91816349D02*
X147525000Y-91816350D01*
X145048000Y-91856349D02*
X147501000Y-91856349D01*
X145048000Y-91896350D02*
X147477000Y-91896349D01*
X145048000Y-91936349D02*
X147452000Y-91936349D01*
X145048000Y-91976349D02*
X147426000Y-91976349D01*
X145048000Y-92016348D02*
X147400000Y-92016349D01*
X145048000Y-92056349D02*
X147373000Y-92056349D01*
X145048000Y-92096349D02*
X147345999Y-92096349D01*
X145048000Y-92136349D02*
X147317000Y-92136349D01*
X145048000Y-92216349D02*
X147258000Y-92216349D01*
X145048000Y-92256349D02*
X147228000Y-92256349D01*
X145048000Y-92296349D02*
X147197000Y-92296349D01*
X145048000Y-92336350D02*
X147164000Y-92336350D01*
X145048000Y-92376349D02*
X147132000Y-92376348D01*
X145048000Y-92416349D02*
X147098000Y-92416349D01*
X145048000Y-92456348D02*
X147063000Y-92456349D01*
X145048000Y-92496349D02*
X147027000Y-92496349D01*
X145048001Y-90696349D02*
X147975000Y-90696349D01*
X145048001Y-91136349D02*
X147843000Y-91136349D01*
X145048001Y-91576349D02*
X147655000Y-91576349D01*
X145048001Y-91736349D02*
X147570000Y-91736349D01*
X145048001Y-92176349D02*
X147288000Y-92176349D01*
X148128000Y-89735349D02*
G75*
G02*
X139888000Y-89735349I-4120000J0D01*
G01*
X139888000Y-89735349D02*
G75*
G02*
X148128000Y-89735349I4120000J0D01*
G01*
%TO.C,R9*%
X87400936Y-89284500D02*
X88855064Y-89284500D01*
X87400936Y-91104500D02*
X88855064Y-91104500D01*
%TO.C,D5*%
X92066000Y-103710000D02*
X92066000Y-110720000D01*
X92066000Y-103710000D02*
X95366000Y-103710000D01*
X95366000Y-103710000D02*
X95366000Y-110720000D01*
%TO.C,D7*%
X91558000Y-100032500D02*
X91558000Y-93022500D01*
X94858000Y-100032500D02*
X91558000Y-100032500D01*
X94858000Y-100032500D02*
X94858000Y-93022500D01*
%TO.C,J7*%
X105458000Y-79474000D02*
X106458000Y-79474000D01*
X105458000Y-86594000D02*
X106458000Y-86594000D01*
X105458000Y-86844000D02*
X106458000Y-86844000D01*
X106458000Y-79224000D02*
X105458000Y-79224000D01*
X106458000Y-86844000D02*
X106458000Y-79224000D01*
X106458000Y-86844000D02*
X106988000Y-86594000D01*
X106988000Y-79474000D02*
X106458000Y-79224000D01*
X106988000Y-86594000D02*
X106988000Y-79474000D01*
X110448000Y-88514000D02*
X106448000Y-88514000D01*
X110878000Y-78424000D02*
X111478000Y-78424000D01*
X110878000Y-80024000D02*
X110878000Y-78424000D01*
X110878000Y-80964000D02*
X111478000Y-80964000D01*
X110878000Y-82564000D02*
X110878000Y-80964000D01*
X110878000Y-83504000D02*
X111478000Y-83504000D01*
X110878000Y-85104000D02*
X110878000Y-83504000D01*
X110878000Y-86044000D02*
X111478000Y-86044000D01*
X110878000Y-87644000D02*
X110878000Y-86044000D01*
X111478000Y-80024000D02*
X110878000Y-80024000D01*
X111478000Y-82564000D02*
X110878000Y-82564000D01*
X111478000Y-85104000D02*
X110878000Y-85104000D01*
X111478000Y-87644000D02*
X110878000Y-87644000D01*
X111478000Y-88224000D02*
X105458000Y-88224000D01*
X105458000Y-77844000D01*
X111478000Y-77844000D01*
X111478000Y-88224000D01*
D12*
%TO.C,kibuzzard-670C0798*%
G36*
X107336376Y-113177807D02*
G01*
X107328460Y-113247920D01*
X107304712Y-113295416D01*
X107214890Y-113331603D01*
X107159963Y-113321910D01*
X107121836Y-113292831D01*
X107099542Y-113247920D01*
X107092111Y-113190731D01*
X107092757Y-113168760D01*
X107095988Y-113142912D01*
X107336376Y-113142912D01*
X107336376Y-113177807D01*
G37*
G36*
X107870571Y-114020456D02*
G01*
X107870571Y-114192346D01*
X107870571Y-114461598D01*
X107860729Y-114561528D01*
X107831580Y-114657617D01*
X107784246Y-114746174D01*
X107720544Y-114823795D01*
X107642923Y-114887496D01*
X107554367Y-114934831D01*
X107458277Y-114963979D01*
X107358347Y-114973822D01*
X107258417Y-114963979D01*
X107162327Y-114934831D01*
X107073771Y-114887496D01*
X106996150Y-114823795D01*
X106932448Y-114746174D01*
X106885114Y-114657617D01*
X106855965Y-114561528D01*
X106846123Y-114461598D01*
X106846123Y-114192346D01*
X106846123Y-113587500D01*
X106962870Y-113587500D01*
X106962870Y-113759390D01*
X107218767Y-113886046D01*
X106962870Y-114019164D01*
X106962870Y-114179422D01*
X107336376Y-113975222D01*
X107393242Y-114009794D01*
X107452693Y-114043719D01*
X107512628Y-114076191D01*
X107570948Y-114106401D01*
X107626521Y-114133703D01*
X107678218Y-114157451D01*
X107762870Y-114192346D01*
X107762870Y-114020456D01*
X107693404Y-113993154D01*
X107616828Y-113960359D01*
X107536699Y-113924010D01*
X107456570Y-113886046D01*
X107534276Y-113848566D01*
X107614890Y-113811086D01*
X107692919Y-113776191D01*
X107762870Y-113746466D01*
X107762870Y-113574576D01*
X107678864Y-113612702D01*
X107627814Y-113639196D01*
X107572887Y-113668275D01*
X107515213Y-113699454D01*
X107455924Y-113732249D01*
X107396958Y-113765206D01*
X107340253Y-113796870D01*
X106962870Y-113587500D01*
X106846123Y-113587500D01*
X106846123Y-113190731D01*
X106953824Y-113190731D01*
X106957701Y-113255997D01*
X106969332Y-113314802D01*
X106989042Y-113366498D01*
X107017152Y-113410440D01*
X107099219Y-113471829D01*
X107153339Y-113487823D01*
X107216182Y-113493154D01*
X107282741Y-113486046D01*
X107342838Y-113464721D01*
X107392919Y-113426918D01*
X107429429Y-113370375D01*
X107503743Y-113416902D01*
X107589042Y-113464721D01*
X107678218Y-113509309D01*
X107762870Y-113546143D01*
X107762870Y-113379422D01*
X107686780Y-113347274D01*
X107613597Y-113310278D01*
X107541384Y-113269406D01*
X107468202Y-113225626D01*
X107468202Y-113142912D01*
X107762870Y-113142912D01*
X107762870Y-112983946D01*
X106974502Y-112983946D01*
X106964809Y-113034996D01*
X106958347Y-113091215D01*
X106955116Y-113145496D01*
X106953824Y-113190731D01*
X106846123Y-113190731D01*
X106846123Y-112983946D01*
X106846123Y-112391592D01*
X107870571Y-112391592D01*
X107870571Y-112983946D01*
X107870571Y-113546143D01*
X107870571Y-114020456D01*
G37*
D11*
%TO.C,R6*%
X107651064Y-104730000D02*
X106196936Y-104730000D01*
X107651064Y-106550000D02*
X106196936Y-106550000D01*
D12*
%TO.C,G\u002A\u002A\u002A*%
G36*
X104954247Y-114303784D02*
G01*
X104999904Y-114304340D01*
X105041418Y-114305333D01*
X105076502Y-114306763D01*
X105102868Y-114308631D01*
X105118231Y-114310938D01*
X105147595Y-114324708D01*
X105172863Y-114349457D01*
X105188959Y-114382085D01*
X105192307Y-114400477D01*
X105188714Y-114433049D01*
X105174128Y-114462927D01*
X105149838Y-114486659D01*
X105125642Y-114503101D01*
X104916857Y-114503101D01*
X104892990Y-114503098D01*
X104839397Y-114503030D01*
X104796988Y-114502802D01*
X104764232Y-114502317D01*
X104739602Y-114501482D01*
X104721569Y-114500202D01*
X104708605Y-114498382D01*
X104699180Y-114495928D01*
X104691765Y-114492745D01*
X104684834Y-114488738D01*
X104672031Y-114478860D01*
X104652211Y-114452755D01*
X104640885Y-114421420D01*
X104640117Y-114389439D01*
X104643991Y-114375352D01*
X104660144Y-114347682D01*
X104684390Y-114325002D01*
X104713230Y-114311061D01*
X104721373Y-114309571D01*
X104743861Y-114307523D01*
X104775928Y-114305908D01*
X104815288Y-114304726D01*
X104859652Y-114303977D01*
X104906734Y-114303663D01*
X104954247Y-114303784D01*
G37*
G36*
X104801446Y-113678606D02*
G01*
X104916959Y-113678623D01*
X104986641Y-113678627D01*
X105091840Y-113678645D01*
X105184967Y-113678689D01*
X105266783Y-113678773D01*
X105338054Y-113678911D01*
X105399542Y-113679117D01*
X105452012Y-113679404D01*
X105496228Y-113679786D01*
X105532952Y-113680277D01*
X105562950Y-113680891D01*
X105586985Y-113681640D01*
X105605820Y-113682540D01*
X105620219Y-113683604D01*
X105630947Y-113684845D01*
X105638767Y-113686278D01*
X105644442Y-113687916D01*
X105648737Y-113689772D01*
X105652415Y-113691861D01*
X105653090Y-113692276D01*
X105679391Y-113715285D01*
X105695199Y-113743402D01*
X105700849Y-113774083D01*
X105696681Y-113804783D01*
X105683029Y-113832958D01*
X105660231Y-113856062D01*
X105628625Y-113871551D01*
X105621477Y-113872200D01*
X105601611Y-113872924D01*
X105570130Y-113873621D01*
X105527932Y-113874286D01*
X105475917Y-113874910D01*
X105414982Y-113875485D01*
X105346026Y-113876004D01*
X105269948Y-113876461D01*
X105187645Y-113876846D01*
X105100017Y-113877153D01*
X105007961Y-113877375D01*
X104912376Y-113877503D01*
X104213955Y-113878075D01*
X104184287Y-113863114D01*
X104160255Y-113846938D01*
X104139093Y-113820297D01*
X104129151Y-113788953D01*
X104131023Y-113755083D01*
X104145308Y-113720864D01*
X104146957Y-113718099D01*
X104150491Y-113711847D01*
X104153915Y-113706290D01*
X104157972Y-113701387D01*
X104163407Y-113697097D01*
X104170966Y-113693380D01*
X104181394Y-113690194D01*
X104195435Y-113687500D01*
X104213834Y-113685256D01*
X104237337Y-113683421D01*
X104266689Y-113681955D01*
X104302634Y-113680817D01*
X104345918Y-113679966D01*
X104397285Y-113679362D01*
X104457480Y-113678963D01*
X104527249Y-113678728D01*
X104607336Y-113678618D01*
X104698487Y-113678591D01*
X104801446Y-113678606D01*
G37*
G36*
X105152628Y-113992080D02*
G01*
X105212116Y-113992228D01*
X105264046Y-113992483D01*
X105307271Y-113992841D01*
X105340642Y-113993297D01*
X105363011Y-113993847D01*
X105373229Y-113994484D01*
X105388514Y-113999307D01*
X105414094Y-114015659D01*
X105435343Y-114038829D01*
X105448055Y-114064860D01*
X105449731Y-114072266D01*
X105449839Y-114106330D01*
X105438579Y-114138177D01*
X105417475Y-114164803D01*
X105388048Y-114183205D01*
X105384356Y-114183958D01*
X105367283Y-114185269D01*
X105337415Y-114186378D01*
X105295086Y-114187281D01*
X105240626Y-114187974D01*
X105174369Y-114188453D01*
X105096645Y-114188716D01*
X105007787Y-114188757D01*
X104908127Y-114188574D01*
X104885361Y-114188509D01*
X104798736Y-114188251D01*
X104724222Y-114187988D01*
X104660863Y-114187689D01*
X104607701Y-114187326D01*
X104563780Y-114186868D01*
X104528144Y-114186285D01*
X104499835Y-114185548D01*
X104477896Y-114184626D01*
X104461372Y-114183490D01*
X104449304Y-114182110D01*
X104440737Y-114180456D01*
X104434713Y-114178499D01*
X104430276Y-114176208D01*
X104426469Y-114173554D01*
X104426155Y-114173319D01*
X104399847Y-114148781D01*
X104385218Y-114122241D01*
X104380692Y-114090850D01*
X104380692Y-114090516D01*
X104385308Y-114059185D01*
X104400042Y-114032677D01*
X104426469Y-114008145D01*
X104426708Y-114007968D01*
X104430577Y-114005310D01*
X104435159Y-114003019D01*
X104441422Y-114001064D01*
X104450335Y-113999412D01*
X104462865Y-113998031D01*
X104479980Y-113996888D01*
X104502649Y-113995953D01*
X104531840Y-113995192D01*
X104568520Y-113994573D01*
X104613659Y-113994065D01*
X104668223Y-113993635D01*
X104733181Y-113993251D01*
X104809502Y-113992882D01*
X104898153Y-113992494D01*
X104940302Y-113992330D01*
X105015573Y-113992127D01*
X105086732Y-113992045D01*
X105152628Y-113992080D01*
G37*
G36*
X104918810Y-112452612D02*
G01*
X104949424Y-112457427D01*
X104974928Y-112471816D01*
X104998658Y-112497595D01*
X105000202Y-112499724D01*
X105002758Y-112503959D01*
X105004937Y-112509413D01*
X105006774Y-112517091D01*
X105008305Y-112528000D01*
X105009566Y-112543147D01*
X105010592Y-112563539D01*
X105011418Y-112590182D01*
X105012081Y-112624083D01*
X105012614Y-112666249D01*
X105013055Y-112717687D01*
X105013438Y-112779402D01*
X105013800Y-112852403D01*
X105014174Y-112937695D01*
X105015981Y-113359436D01*
X105440340Y-113359436D01*
X105864700Y-113359436D01*
X105893304Y-113374563D01*
X105902463Y-113380002D01*
X105927200Y-113403311D01*
X105941882Y-113431945D01*
X105946427Y-113463200D01*
X105940755Y-113494372D01*
X105924785Y-113522757D01*
X105898436Y-113545650D01*
X105896868Y-113546583D01*
X105893491Y-113548310D01*
X105889236Y-113549867D01*
X105883450Y-113551263D01*
X105875478Y-113552506D01*
X105864667Y-113553606D01*
X105850363Y-113554572D01*
X105831912Y-113555412D01*
X105808662Y-113556134D01*
X105779957Y-113556749D01*
X105745145Y-113557264D01*
X105703571Y-113557688D01*
X105654583Y-113558031D01*
X105597525Y-113558300D01*
X105531745Y-113558506D01*
X105456589Y-113558656D01*
X105371403Y-113558760D01*
X105275533Y-113558827D01*
X105168326Y-113558864D01*
X105049129Y-113558881D01*
X104917286Y-113558888D01*
X104840336Y-113558895D01*
X104714050Y-113558920D01*
X104600049Y-113558939D01*
X104497686Y-113558928D01*
X104406313Y-113558860D01*
X104325283Y-113558709D01*
X104253949Y-113558451D01*
X104191661Y-113558060D01*
X104137774Y-113557509D01*
X104091640Y-113556774D01*
X104052610Y-113555828D01*
X104020038Y-113554646D01*
X103993276Y-113553203D01*
X103971676Y-113551472D01*
X103954591Y-113549429D01*
X103941373Y-113547047D01*
X103931375Y-113544301D01*
X103923950Y-113541166D01*
X103918449Y-113537615D01*
X103914225Y-113533623D01*
X103910631Y-113529165D01*
X103907018Y-113524214D01*
X103902741Y-113518746D01*
X103893617Y-113506107D01*
X103887075Y-113488227D01*
X103885350Y-113463651D01*
X103885658Y-113453889D01*
X103893332Y-113418797D01*
X103911480Y-113391785D01*
X103940319Y-113372494D01*
X103941089Y-113372147D01*
X103947340Y-113369614D01*
X103954568Y-113367449D01*
X103963799Y-113365623D01*
X103976059Y-113364108D01*
X103992377Y-113362873D01*
X104013778Y-113361890D01*
X104041290Y-113361129D01*
X104075939Y-113360561D01*
X104118752Y-113360156D01*
X104170756Y-113359885D01*
X104232978Y-113359718D01*
X104306445Y-113359627D01*
X104392184Y-113359582D01*
X104815927Y-113359436D01*
X104817733Y-112937695D01*
X104817939Y-112890195D01*
X104818302Y-112811644D01*
X104818670Y-112744844D01*
X104819080Y-112688786D01*
X104819567Y-112642464D01*
X104820165Y-112604872D01*
X104820911Y-112575003D01*
X104821841Y-112551850D01*
X104822989Y-112534406D01*
X104824391Y-112521666D01*
X104826082Y-112512621D01*
X104828099Y-112506265D01*
X104830476Y-112501592D01*
X104833249Y-112497595D01*
X104835220Y-112494994D01*
X104858970Y-112470223D01*
X104884769Y-112456692D01*
X104915954Y-112452586D01*
X104918810Y-112452612D01*
G37*
D11*
%TO.C,J1*%
X100469000Y-115838000D02*
X100469000Y-121858000D01*
X100469000Y-121858000D02*
X105769000Y-121858000D01*
X101049000Y-115838000D02*
X101049000Y-116438000D01*
X101049000Y-116438000D02*
X102649000Y-116438000D01*
X101849000Y-120858000D02*
X102099000Y-120327999D01*
X101849000Y-120858000D02*
X104389000Y-120857999D01*
X101849000Y-121858000D02*
X101849000Y-120858000D01*
X102099000Y-120327999D02*
X104139000Y-120328000D01*
X102099000Y-120858000D02*
X102099000Y-121858000D01*
X102649000Y-116438000D02*
X102649000Y-115838000D01*
X103589000Y-115838000D02*
X103589000Y-116438000D01*
X103589000Y-116438000D02*
X105189000Y-116438000D01*
X104139000Y-120328000D02*
X104389000Y-120857999D01*
X104139000Y-120858000D02*
X104139000Y-121858000D01*
X104389000Y-120857999D02*
X104389000Y-121858000D01*
X105189000Y-116438000D02*
X105189000Y-115838000D01*
X105769000Y-115838000D02*
X100469000Y-115838000D01*
X105769000Y-121858000D02*
X105769000Y-115838000D01*
X106059000Y-120868000D02*
X106059000Y-116868000D01*
%TO.C,R15*%
X87400936Y-77600500D02*
X88855064Y-77600500D01*
X87400936Y-79420500D02*
X88855064Y-79420500D01*
%TO.C,J14*%
X145031999Y-75270000D02*
X145031999Y-74670000D01*
X145832000Y-79690000D02*
X145832000Y-80690000D01*
X146082000Y-79160000D02*
X145832000Y-79690000D01*
X146082000Y-80690000D02*
X146082001Y-79690000D01*
X146632000Y-74670000D02*
X146632000Y-75270000D01*
X146632000Y-75270000D02*
X145031999Y-75270000D01*
X147572001Y-75270000D02*
X147572001Y-74670000D01*
X149171999Y-75270000D02*
X147572001Y-75270000D01*
X149172000Y-74669999D02*
X149171999Y-75270000D01*
X150112000Y-75270000D02*
X150112000Y-74670000D01*
X151712000Y-74670000D02*
X151712000Y-75270000D01*
X151712000Y-75270000D02*
X150112000Y-75270000D01*
X152652000Y-75270000D02*
X152652000Y-74670000D01*
X153202000Y-79160000D02*
X146082000Y-79160000D01*
X153202000Y-80690000D02*
X153202000Y-79690000D01*
X153452000Y-79689999D02*
X145832000Y-79690000D01*
X153452000Y-79689999D02*
X153202000Y-79160000D01*
X153452000Y-80690000D02*
X153452000Y-79689999D01*
X154252000Y-74670000D02*
X154252000Y-75270000D01*
X154252000Y-75270000D02*
X152652000Y-75270000D01*
X155122000Y-75700000D02*
X155122000Y-79700000D01*
X154832000Y-74670000D02*
X154832000Y-80690000D01*
X144452000Y-80690000D01*
X144452000Y-74669999D01*
X154832000Y-74670000D01*
%TO.C,R5*%
X107651064Y-102190000D02*
X106196936Y-102190000D01*
X107651064Y-104010000D02*
X106196936Y-104010000D01*
D12*
%TO.C,kibuzzard-6998F94E*%
G36*
X102565160Y-105152787D02*
G01*
X102511364Y-105194952D01*
X102456149Y-105213979D01*
X102386144Y-105225395D01*
X102301348Y-105229200D01*
X102217269Y-105225395D01*
X102147695Y-105213979D01*
X102092624Y-105194952D01*
X102038827Y-105152787D01*
X102021295Y-105096083D01*
X102201832Y-105096083D01*
X102227680Y-105147133D01*
X102288424Y-105167165D01*
X102348520Y-105147133D01*
X102373722Y-105096083D01*
X102348520Y-105043094D01*
X102288424Y-105023708D01*
X102227680Y-105043094D01*
X102201832Y-105096083D01*
X102021295Y-105096083D01*
X102020895Y-105094790D01*
X102038827Y-105037601D01*
X102092624Y-104995275D01*
X102147695Y-104975889D01*
X102217269Y-104964257D01*
X102301348Y-104960380D01*
X102386144Y-104964257D01*
X102456149Y-104975889D01*
X102511364Y-104995275D01*
X102565160Y-105037601D01*
X102583092Y-105094790D01*
X102582693Y-105096083D01*
X102565160Y-105152787D01*
G37*
G36*
X102827788Y-105094790D02*
G01*
X102827788Y-106011107D01*
X102827788Y-106280358D01*
X102817698Y-106382810D01*
X102787814Y-106481324D01*
X102739285Y-106572115D01*
X102673976Y-106651694D01*
X102594397Y-106717003D01*
X102503605Y-106765532D01*
X102405091Y-106795416D01*
X102302640Y-106805506D01*
X102200189Y-106795416D01*
X102101675Y-106765532D01*
X102010883Y-106717003D01*
X101931304Y-106651694D01*
X101865995Y-106572115D01*
X101817466Y-106481324D01*
X101787582Y-106382810D01*
X101777492Y-106280358D01*
X101777492Y-106011107D01*
X101777492Y-105743579D01*
X101903286Y-105743579D01*
X101903286Y-105852141D01*
X102571461Y-105852141D01*
X102571461Y-106011107D01*
X102703286Y-106011107D01*
X102703286Y-105525162D01*
X102571461Y-105525162D01*
X102571461Y-105693175D01*
X102124288Y-105693175D01*
X102170168Y-105610461D01*
X102201832Y-105531624D01*
X102070007Y-105479927D01*
X102040281Y-105547133D01*
X102000217Y-105619507D01*
X101953690Y-105688005D01*
X101903286Y-105743579D01*
X101777492Y-105743579D01*
X101777492Y-105094790D01*
X101885193Y-105094790D01*
X101896609Y-105178079D01*
X101930858Y-105247007D01*
X101987939Y-105301575D01*
X102046057Y-105332674D01*
X102117664Y-105354887D01*
X102202761Y-105368215D01*
X102301348Y-105372658D01*
X102400540Y-105368215D01*
X102486162Y-105354887D01*
X102558214Y-105332674D01*
X102616695Y-105301575D01*
X102674135Y-105247007D01*
X102708599Y-105178079D01*
X102720087Y-105094790D01*
X102708599Y-105011502D01*
X102674135Y-104942573D01*
X102616695Y-104888005D01*
X102558214Y-104856906D01*
X102486162Y-104834693D01*
X102400540Y-104821365D01*
X102301348Y-104816923D01*
X102203286Y-104821446D01*
X102118472Y-104835016D01*
X102046905Y-104857633D01*
X101988585Y-104889297D01*
X101931145Y-104944297D01*
X101896681Y-105012794D01*
X101885193Y-105094790D01*
X101777492Y-105094790D01*
X101777492Y-104462803D01*
X101885193Y-104462803D01*
X101889393Y-104531785D01*
X101901994Y-104591398D01*
X101939474Y-104683805D01*
X102062252Y-104637278D01*
X102031235Y-104565549D01*
X102018310Y-104474435D01*
X102028506Y-104404070D01*
X102059093Y-104361852D01*
X102110071Y-104347779D01*
X102150782Y-104360703D01*
X102181800Y-104393659D01*
X102205709Y-104438894D01*
X102225096Y-104488651D01*
X102256760Y-104566842D01*
X102303286Y-104641801D01*
X102375661Y-104698021D01*
X102424611Y-104714499D01*
X102484869Y-104719992D01*
X102584546Y-104701737D01*
X102658698Y-104646971D01*
X102692803Y-104589890D01*
X102713266Y-104516007D01*
X102720087Y-104425323D01*
X102714756Y-104335824D01*
X102698763Y-104266357D01*
X102659344Y-104177181D01*
X102530104Y-104223708D01*
X102568876Y-104307068D01*
X102582446Y-104360864D01*
X102586970Y-104425323D01*
X102578569Y-104491882D01*
X102555306Y-104533885D01*
X102521703Y-104555210D01*
X102483577Y-104561026D01*
X102439635Y-104546810D01*
X102405386Y-104510622D01*
X102378246Y-104461511D01*
X102355629Y-104407230D01*
X102325903Y-104332270D01*
X102283254Y-104261834D01*
X102219280Y-104209491D01*
X102124288Y-104188813D01*
X102024126Y-104207068D01*
X101948520Y-104261834D01*
X101913338Y-104316617D01*
X101892229Y-104383607D01*
X101885193Y-104462803D01*
X101777492Y-104462803D01*
X101777492Y-104177181D01*
X101777492Y-103907930D01*
X102827788Y-103907930D01*
X102827788Y-104177181D01*
X102827788Y-104425323D01*
X102827788Y-105094790D01*
G37*
%TO.C,kibuzzard-6998F954*%
G36*
X100049566Y-105173165D02*
G01*
X99995770Y-105215330D01*
X99940555Y-105234357D01*
X99870550Y-105245773D01*
X99785754Y-105249579D01*
X99701675Y-105245773D01*
X99632101Y-105234357D01*
X99577030Y-105215330D01*
X99523233Y-105173165D01*
X99505700Y-105116461D01*
X99686238Y-105116461D01*
X99712086Y-105167511D01*
X99772830Y-105187543D01*
X99832926Y-105167511D01*
X99858128Y-105116461D01*
X99832926Y-105063472D01*
X99772830Y-105044086D01*
X99712086Y-105063472D01*
X99686238Y-105116461D01*
X99505700Y-105116461D01*
X99505301Y-105115169D01*
X99523233Y-105057980D01*
X99577030Y-105015653D01*
X99632101Y-104996267D01*
X99701675Y-104984635D01*
X99785754Y-104980758D01*
X99870550Y-104984635D01*
X99940555Y-104996267D01*
X99995770Y-105015653D01*
X100049566Y-105057980D01*
X100067498Y-105115169D01*
X100067099Y-105116461D01*
X100049566Y-105173165D01*
G37*
G36*
X100312194Y-105115169D02*
G01*
X100312194Y-106035362D01*
X100312194Y-106304614D01*
X100302104Y-106407065D01*
X100272220Y-106505579D01*
X100223691Y-106596371D01*
X100158382Y-106675950D01*
X100078803Y-106741259D01*
X99988011Y-106789787D01*
X99889497Y-106819671D01*
X99787046Y-106829762D01*
X99684595Y-106819671D01*
X99586081Y-106789787D01*
X99495289Y-106741259D01*
X99415710Y-106675950D01*
X99350401Y-106596371D01*
X99301872Y-106505579D01*
X99271988Y-106407065D01*
X99261898Y-106304614D01*
X99261898Y-106035362D01*
X99261898Y-105748448D01*
X99369599Y-105748448D01*
X99383815Y-105842794D01*
X99426464Y-105922923D01*
X99498193Y-105978497D01*
X99598355Y-105999175D01*
X99677838Y-105983666D01*
X99752151Y-105942309D01*
X99821941Y-105884151D01*
X99886561Y-105818238D01*
X99923395Y-105779466D01*
X99967337Y-105738109D01*
X100013217Y-105705152D01*
X100055867Y-105691582D01*
X100055867Y-106035362D01*
X100187692Y-106035362D01*
X100187692Y-105513230D01*
X100155382Y-105509999D01*
X100128241Y-105510645D01*
X100066206Y-105516623D01*
X100009340Y-105534555D01*
X99957159Y-105561695D01*
X99909178Y-105595298D01*
X99864914Y-105633424D01*
X99823880Y-105674135D01*
X99785269Y-105714845D01*
X99748274Y-105752971D01*
X99678484Y-105813715D01*
X99609986Y-105837624D01*
X99534380Y-105807899D01*
X99507886Y-105732939D01*
X99525980Y-105654102D01*
X99586723Y-105572681D01*
X99475576Y-105493844D01*
X99428403Y-105549579D01*
X99395447Y-105613392D01*
X99376061Y-105681081D01*
X99369599Y-105748448D01*
X99261898Y-105748448D01*
X99261898Y-105115169D01*
X99369599Y-105115169D01*
X99381015Y-105198457D01*
X99415264Y-105267385D01*
X99472345Y-105321954D01*
X99530463Y-105353052D01*
X99602070Y-105375265D01*
X99687167Y-105388593D01*
X99785754Y-105393036D01*
X99884946Y-105388593D01*
X99970568Y-105375265D01*
X100042620Y-105353052D01*
X100101101Y-105321954D01*
X100158541Y-105267385D01*
X100193005Y-105198457D01*
X100204493Y-105115169D01*
X100193005Y-105031880D01*
X100158541Y-104962952D01*
X100101101Y-104908383D01*
X100042620Y-104877285D01*
X99970568Y-104855072D01*
X99884946Y-104841744D01*
X99785754Y-104837301D01*
X99687692Y-104841824D01*
X99602878Y-104855395D01*
X99531311Y-104878012D01*
X99472991Y-104909676D01*
X99415551Y-104964675D01*
X99381087Y-105033173D01*
X99369599Y-105115169D01*
X99261898Y-105115169D01*
X99261898Y-104483181D01*
X99369599Y-104483181D01*
X99373799Y-104552164D01*
X99386400Y-104611776D01*
X99423880Y-104704183D01*
X99546658Y-104657656D01*
X99515641Y-104585928D01*
X99502716Y-104494813D01*
X99512912Y-104424449D01*
X99543499Y-104382230D01*
X99594477Y-104368157D01*
X99635188Y-104381081D01*
X99666206Y-104414038D01*
X99690115Y-104459272D01*
X99709502Y-104509030D01*
X99741166Y-104587220D01*
X99787692Y-104662180D01*
X99860067Y-104718400D01*
X99909017Y-104734878D01*
X99969275Y-104740371D01*
X100068952Y-104722115D01*
X100143104Y-104667350D01*
X100177209Y-104610268D01*
X100197672Y-104536386D01*
X100204493Y-104445702D01*
X100199162Y-104356202D01*
X100183169Y-104286736D01*
X100143750Y-104197560D01*
X100014510Y-104244086D01*
X100053282Y-104327446D01*
X100066852Y-104381243D01*
X100071376Y-104445702D01*
X100062975Y-104512261D01*
X100039712Y-104554264D01*
X100006109Y-104575589D01*
X99967983Y-104581404D01*
X99924041Y-104567188D01*
X99889792Y-104531001D01*
X99862652Y-104481889D01*
X99840035Y-104427608D01*
X99810309Y-104352648D01*
X99767660Y-104282212D01*
X99703686Y-104229870D01*
X99608694Y-104209191D01*
X99508532Y-104227446D01*
X99432926Y-104282212D01*
X99397744Y-104336996D01*
X99376635Y-104403986D01*
X99369599Y-104483181D01*
X99261898Y-104483181D01*
X99261898Y-104197560D01*
X99261898Y-103928308D01*
X100312194Y-103928308D01*
X100312194Y-104197560D01*
X100312194Y-104445702D01*
X100312194Y-105115169D01*
G37*
D11*
%TO.C,J4*%
X151980000Y-70980000D02*
X151980000Y-66980000D01*
X152850000Y-71410000D02*
X154450000Y-71410000D01*
X152850000Y-72010000D02*
X152850000Y-71410000D01*
X153650000Y-65990000D02*
X153650000Y-66990001D01*
X153650000Y-66990001D02*
X153900000Y-67520000D01*
X153650000Y-66990001D02*
X166350001Y-66990000D01*
X153900000Y-65990000D02*
X153900000Y-66990000D01*
X153900000Y-67520000D02*
X166100000Y-67520001D01*
X154450000Y-71410000D02*
X154450000Y-72010000D01*
X155390000Y-71410000D02*
X156990000Y-71410000D01*
X155390000Y-72010000D02*
X155390000Y-71410000D01*
X156990000Y-71410000D02*
X156990000Y-72010000D01*
X157930000Y-72010001D02*
X157930001Y-71410000D01*
X157930001Y-71410000D02*
X159529999Y-71410000D01*
X159529999Y-71410000D02*
X159529999Y-72010000D01*
X160470000Y-71410000D02*
X162070001Y-71410000D01*
X160470000Y-72010000D02*
X160470000Y-71410000D01*
X162070001Y-71410000D02*
X162070001Y-72010000D01*
X163010000Y-71410000D02*
X164610000Y-71410000D01*
X163010000Y-72010000D02*
X163010000Y-71410000D01*
X164610000Y-71410000D02*
X164610000Y-72010000D01*
X165550000Y-71410000D02*
X167150000Y-71410000D01*
X165550000Y-72010000D02*
X165550000Y-71410000D01*
X166100000Y-65990000D02*
X166100000Y-66990000D01*
X166100000Y-67520001D02*
X166350001Y-66990000D01*
X166350001Y-66990000D02*
X166350000Y-65990000D01*
X167150000Y-71410000D02*
X167150000Y-72010000D01*
X167730000Y-72010000D02*
X152270000Y-72010000D01*
X152270000Y-65990000D01*
X167730000Y-65990000D01*
X167730000Y-72010000D01*
%TO.C,J13*%
X119590706Y-75083039D02*
X119590706Y-74483039D01*
X120390707Y-79503039D02*
X120390707Y-80503039D01*
X120640707Y-78973039D02*
X120390707Y-79503039D01*
X120640707Y-80503039D02*
X120640708Y-79503039D01*
X121190707Y-74483039D02*
X121190707Y-75083039D01*
X121190707Y-75083039D02*
X119590706Y-75083039D01*
X122130708Y-75083039D02*
X122130708Y-74483039D01*
X123730706Y-75083039D02*
X122130708Y-75083039D01*
X123730707Y-74483038D02*
X123730706Y-75083039D01*
X124670707Y-75083039D02*
X124670707Y-74483039D01*
X126270707Y-74483039D02*
X126270707Y-75083039D01*
X126270707Y-75083039D02*
X124670707Y-75083039D01*
X127210707Y-75083039D02*
X127210707Y-74483039D01*
X127760707Y-78973039D02*
X120640707Y-78973039D01*
X127760707Y-80503039D02*
X127760707Y-79503039D01*
X128010707Y-79503038D02*
X120390707Y-79503039D01*
X128010707Y-79503038D02*
X127760707Y-78973039D01*
X128010707Y-80503039D02*
X128010707Y-79503038D01*
X128810707Y-74483039D02*
X128810707Y-75083039D01*
X128810707Y-75083039D02*
X127210707Y-75083039D01*
X129680707Y-75513039D02*
X129680707Y-79513039D01*
X129390707Y-74483039D02*
X129390707Y-80503039D01*
X119010707Y-80503039D01*
X119010707Y-74483038D01*
X129390707Y-74483039D01*
%TD*%
M02*
