%TF.GenerationSoftware,KiCad,Pcbnew,9.0.7-9.0.7~ubuntu24.04.1*%
%TF.CreationDate,2026-03-18T23:10:03+01:00*%
%TF.ProjectId,NinjaPAMI-2026,4e696e6a-6150-4414-9d49-2d323032362e,rev?*%
%TF.SameCoordinates,Original*%
%TF.FileFunction,Paste,Top*%
%TF.FilePolarity,Positive*%
%FSLAX46Y46*%
G04 Gerber Fmt 4.6, Leading zero omitted, Abs format (unit mm)*
G04 Created by KiCad (PCBNEW 9.0.7-9.0.7~ubuntu24.04.1) date 2026-03-18 23:10:03*
%MOMM*%
%LPD*%
G01*
G04 APERTURE LIST*
G04 Aperture macros list*
%AMRoundRect*
0 Rectangle with rounded corners*
0 $1 Rounding radius*
0 $2 $3 $4 $5 $6 $7 $8 $9 X,Y pos of 4 corners*
0 Add a 4 corners polygon primitive as box body*
4,1,4,$2,$3,$4,$5,$6,$7,$8,$9,$2,$3,0*
0 Add four circle primitives for the rounded corners*
1,1,$1+$1,$2,$3*
1,1,$1+$1,$4,$5*
1,1,$1+$1,$6,$7*
1,1,$1+$1,$8,$9*
0 Add four rect primitives between the rounded corners*
20,1,$1+$1,$2,$3,$4,$5,0*
20,1,$1+$1,$4,$5,$6,$7,0*
20,1,$1+$1,$6,$7,$8,$9,0*
20,1,$1+$1,$8,$9,$2,$3,0*%
G04 Aperture macros list end*
%ADD10RoundRect,0.250000X-0.550000X1.250000X-0.550000X-1.250000X0.550000X-1.250000X0.550000X1.250000X0*%
%ADD11RoundRect,0.250000X1.500000X0.650000X-1.500000X0.650000X-1.500000X-0.650000X1.500000X-0.650000X0*%
%ADD12RoundRect,0.250000X0.375000X0.625000X-0.375000X0.625000X-0.375000X-0.625000X0.375000X-0.625000X0*%
%ADD13RoundRect,0.250000X-0.400000X-0.625000X0.400000X-0.625000X0.400000X0.625000X-0.400000X0.625000X0*%
%ADD14RoundRect,0.250000X0.625000X-0.400000X0.625000X0.400000X-0.625000X0.400000X-0.625000X-0.400000X0*%
%ADD15RoundRect,0.250000X-0.625000X0.400000X-0.625000X-0.400000X0.625000X-0.400000X0.625000X0.400000X0*%
%ADD16RoundRect,0.250000X0.550000X-1.250000X0.550000X1.250000X-0.550000X1.250000X-0.550000X-1.250000X0*%
%ADD17RoundRect,0.250000X-0.375000X-0.625000X0.375000X-0.625000X0.375000X0.625000X-0.375000X0.625000X0*%
%ADD18RoundRect,0.200000X0.750000X0.200000X-0.750000X0.200000X-0.750000X-0.200000X0.750000X-0.200000X0*%
%ADD19R,0.900000X1.500000*%
%ADD20RoundRect,0.250000X-0.325000X-0.650000X0.325000X-0.650000X0.325000X0.650000X-0.325000X0.650000X0*%
%ADD21RoundRect,0.250000X0.400000X0.625000X-0.400000X0.625000X-0.400000X-0.625000X0.400000X-0.625000X0*%
%ADD22RoundRect,0.250000X0.412500X0.650000X-0.412500X0.650000X-0.412500X-0.650000X0.412500X-0.650000X0*%
G04 APERTURE END LIST*
D10*
%TO.C,C2*%
X84064000Y-103948000D03*
X84064000Y-108348000D03*
%TD*%
D11*
%TO.C,D12*%
X117044000Y-119864000D03*
X112044000Y-119864000D03*
%TD*%
D12*
%TO.C,D2*%
X92067999Y-120372000D03*
X89268001Y-120372000D03*
%TD*%
D13*
%TO.C,R8*%
X89117999Y-117324000D03*
X92218001Y-117324000D03*
%TD*%
D14*
%TO.C,R4*%
X161280000Y-74678001D03*
X161280000Y-71577999D03*
%TD*%
D15*
%TO.C,R23*%
X175504000Y-105614000D03*
X175504000Y-108714000D03*
%TD*%
D16*
%TO.C,C6*%
X84064000Y-99506500D03*
X84064000Y-95106500D03*
%TD*%
D17*
%TO.C,D6*%
X81648000Y-111736000D03*
X84448000Y-111736000D03*
%TD*%
%TO.C,D4*%
X81648000Y-91210500D03*
X84448000Y-91210500D03*
%TD*%
D18*
%TO.C,U5*%
X171924000Y-108114000D03*
X171924000Y-106214000D03*
X168924000Y-107164000D03*
%TD*%
D17*
%TO.C,D9*%
X81674002Y-75160000D03*
X84474000Y-75160000D03*
%TD*%
D14*
%TO.C,R2*%
X158740000Y-74678001D03*
X158740000Y-71577999D03*
%TD*%
D13*
%TO.C,R16*%
X86604000Y-75160000D03*
X89704002Y-75160000D03*
%TD*%
D14*
%TO.C,R1*%
X98796000Y-74704002D03*
X98796000Y-71604000D03*
%TD*%
D16*
%TO.C,C7*%
X84064000Y-87314500D03*
X84064000Y-82914500D03*
%TD*%
D19*
%TO.C,D1*%
X176520000Y-92940000D03*
X173220000Y-92940000D03*
X173220000Y-97840000D03*
X176520000Y-97840000D03*
%TD*%
D20*
%TO.C,C1*%
X173394999Y-90150000D03*
X176345001Y-90150000D03*
%TD*%
D21*
%TO.C,R7*%
X176420001Y-100310000D03*
X173319999Y-100310000D03*
%TD*%
D14*
%TO.C,R3*%
X101336000Y-74704002D03*
X101336000Y-71604000D03*
%TD*%
D22*
%TO.C,C5*%
X173476500Y-110974000D03*
X170351500Y-110974000D03*
%TD*%
D17*
%TO.C,D8*%
X81648001Y-79402499D03*
X84447999Y-79402499D03*
%TD*%
M02*
