%TF.GenerationSoftware,KiCad,Pcbnew,9.0.7-9.0.7~ubuntu24.04.1*%
%TF.CreationDate,2026-03-18T23:10:03+01:00*%
%TF.ProjectId,NinjaPAMI-2026,4e696e6a-6150-4414-9d49-2d323032362e,rev?*%
%TF.SameCoordinates,Original*%
%TF.FileFunction,Soldermask,Bot*%
%TF.FilePolarity,Negative*%
%FSLAX46Y46*%
G04 Gerber Fmt 4.6, Leading zero omitted, Abs format (unit mm)*
G04 Created by KiCad (PCBNEW 9.0.7-9.0.7~ubuntu24.04.1) date 2026-03-18 23:10:03*
%MOMM*%
%LPD*%
G01*
G04 APERTURE LIST*
G04 Aperture macros list*
%AMRoundRect*
0 Rectangle with rounded corners*
0 $1 Rounding radius*
0 $2 $3 $4 $5 $6 $7 $8 $9 X,Y pos of 4 corners*
0 Add a 4 corners polygon primitive as box body*
4,1,4,$2,$3,$4,$5,$6,$7,$8,$9,$2,$3,0*
0 Add four circle primitives for the rounded corners*
1,1,$1+$1,$2,$3*
1,1,$1+$1,$4,$5*
1,1,$1+$1,$6,$7*
1,1,$1+$1,$8,$9*
0 Add four rect primitives between the rounded corners*
20,1,$1+$1,$2,$3,$4,$5,0*
20,1,$1+$1,$4,$5,$6,$7,0*
20,1,$1+$1,$6,$7,$8,$9,0*
20,1,$1+$1,$8,$9,$2,$3,0*%
%AMFreePoly0*
4,1,23,0.550000,-0.750000,0.000000,-0.750000,0.000000,-0.745722,-0.065263,-0.745722,-0.191342,-0.711940,-0.304381,-0.646677,-0.396677,-0.554381,-0.461940,-0.441342,-0.495722,-0.315263,-0.495722,-0.250000,-0.500000,-0.250000,-0.500000,0.250000,-0.495722,0.250000,-0.495722,0.315263,-0.461940,0.441342,-0.396677,0.554381,-0.304381,0.646677,-0.191342,0.711940,-0.065263,0.745722,0.000000,0.745722,
0.000000,0.750000,0.550000,0.750000,0.550000,-0.750000,0.550000,-0.750000,$1*%
%AMFreePoly1*
4,1,23,0.000000,0.745722,0.065263,0.745722,0.191342,0.711940,0.304381,0.646677,0.396677,0.554381,0.461940,0.441342,0.495722,0.315263,0.495722,0.250000,0.500000,0.250000,0.500000,-0.250000,0.495722,-0.250000,0.495722,-0.315263,0.461940,-0.441342,0.396677,-0.554381,0.304381,-0.646677,0.191342,-0.711940,0.065263,-0.745722,0.000000,-0.745722,0.000000,-0.750000,-0.550000,-0.750000,
-0.550000,0.750000,0.000000,0.750000,0.000000,0.745722,0.000000,0.745722,$1*%
G04 Aperture macros list end*
%ADD10C,0.000000*%
%ADD11C,3.200000*%
%ADD12RoundRect,0.102000X-0.754000X0.754000X-0.754000X-0.754000X0.754000X-0.754000X0.754000X0.754000X0*%
%ADD13C,1.712000*%
%ADD14R,2.500000X1.700000*%
%ADD15O,2.500000X1.700000*%
%ADD16R,2.300000X1.500000*%
%ADD17O,2.300000X1.500000*%
%ADD18RoundRect,0.250000X0.620000X0.845000X-0.620000X0.845000X-0.620000X-0.845000X0.620000X-0.845000X0*%
%ADD19O,1.740000X2.190000*%
%ADD20R,2.000000X2.000000*%
%ADD21C,2.000000*%
%ADD22C,0.976200*%
%ADD23C,1.476200*%
%ADD24R,2.500000X2.500000*%
%ADD25C,2.500000*%
%ADD26RoundRect,0.250000X-0.620000X-0.845000X0.620000X-0.845000X0.620000X0.845000X-0.620000X0.845000X0*%
%ADD27RoundRect,0.250000X0.845000X-0.620000X0.845000X0.620000X-0.845000X0.620000X-0.845000X-0.620000X0*%
%ADD28O,2.190000X1.740000*%
%ADD29FreePoly0,270.000000*%
%ADD30R,1.500000X1.000000*%
%ADD31FreePoly1,270.000000*%
%ADD32R,1.600000X1.600000*%
%ADD33C,1.600000*%
%ADD34FreePoly0,90.000000*%
%ADD35FreePoly1,90.000000*%
%ADD36RoundRect,0.250000X-0.400000X-0.625000X0.400000X-0.625000X0.400000X0.625000X-0.400000X0.625000X0*%
%ADD37RoundRect,0.250000X0.650000X-1.500000X0.650000X1.500000X-0.650000X1.500000X-0.650000X-1.500000X0*%
%ADD38R,1.700000X1.700000*%
%ADD39O,1.700000X1.700000*%
%ADD40RoundRect,0.250000X-0.650000X1.500000X-0.650000X-1.500000X0.650000X-1.500000X0.650000X1.500000X0*%
%ADD41RoundRect,0.250000X0.400000X0.625000X-0.400000X0.625000X-0.400000X-0.625000X0.400000X-0.625000X0*%
G04 APERTURE END LIST*
%TO.C,U2*%
G36*
X121922800Y-102928200D02*
G01*
X121059200Y-102928200D01*
X121059200Y-103831800D01*
X121922800Y-103831800D01*
X121922800Y-102928200D01*
G37*
G36*
X121922800Y-105468200D02*
G01*
X121059200Y-105468200D01*
X121059200Y-106371800D01*
X121922800Y-106371800D01*
X121922800Y-105468200D01*
G37*
G36*
X121922800Y-108008200D02*
G01*
X121059200Y-108008200D01*
X121059200Y-108911800D01*
X121922800Y-108911800D01*
X121922800Y-108008200D01*
G37*
G36*
X121922800Y-110548200D02*
G01*
X121059200Y-110548200D01*
X121059200Y-111451800D01*
X121922800Y-111451800D01*
X121922800Y-110548200D01*
G37*
G36*
X121922800Y-113088200D02*
G01*
X121059200Y-113088200D01*
X121059200Y-113991800D01*
X121922800Y-113991800D01*
X121922800Y-113088200D01*
G37*
G36*
X121922800Y-115628200D02*
G01*
X121059200Y-115628200D01*
X121059200Y-116531800D01*
X121922800Y-116531800D01*
X121922800Y-115628200D01*
G37*
G36*
X121922800Y-118168200D02*
G01*
X121059200Y-118168200D01*
X121059200Y-119071800D01*
X121922800Y-119071800D01*
X121922800Y-118168200D01*
G37*
G36*
X138940800Y-102928200D02*
G01*
X138077200Y-102928200D01*
X138077200Y-103831800D01*
X138940800Y-103831800D01*
X138940800Y-102928200D01*
G37*
G36*
X138940800Y-105468200D02*
G01*
X138077200Y-105468200D01*
X138077200Y-106371800D01*
X138940800Y-106371800D01*
X138940800Y-105468200D01*
G37*
G36*
X138940800Y-108008200D02*
G01*
X138077200Y-108008200D01*
X138077200Y-108911800D01*
X138940800Y-108911800D01*
X138940800Y-108008200D01*
G37*
G36*
X138940800Y-110548200D02*
G01*
X138077200Y-110548200D01*
X138077200Y-111451800D01*
X138940800Y-111451800D01*
X138940800Y-110548200D01*
G37*
G36*
X138940800Y-113088200D02*
G01*
X138077200Y-113088200D01*
X138077200Y-113991800D01*
X138940800Y-113991800D01*
X138940800Y-113088200D01*
G37*
G36*
X138940800Y-115628200D02*
G01*
X138077200Y-115628200D01*
X138077200Y-116531800D01*
X138940800Y-116531800D01*
X138940800Y-115628200D01*
G37*
G36*
X138940800Y-118168200D02*
G01*
X138077200Y-118168200D01*
X138077200Y-119071800D01*
X138940800Y-119071800D01*
X138940800Y-118168200D01*
G37*
D10*
G36*
X121624629Y-104218731D02*
G01*
X121745178Y-104280155D01*
X121843780Y-104378757D01*
X121922800Y-104621954D01*
X121922800Y-104673998D01*
X121902269Y-104803629D01*
X121840845Y-104924178D01*
X121742243Y-105022780D01*
X121499046Y-105101800D01*
X121059200Y-105101800D01*
X121059200Y-104198200D01*
X121494998Y-104198200D01*
X121624629Y-104218731D01*
G37*
G36*
X121624629Y-106758731D02*
G01*
X121745178Y-106820155D01*
X121843780Y-106918757D01*
X121922800Y-107161954D01*
X121922800Y-107213998D01*
X121902269Y-107343629D01*
X121840845Y-107464178D01*
X121742243Y-107562780D01*
X121499046Y-107641800D01*
X121059200Y-107641800D01*
X121059200Y-106738200D01*
X121494998Y-106738200D01*
X121624629Y-106758731D01*
G37*
G36*
X121624629Y-109298731D02*
G01*
X121745178Y-109360155D01*
X121843780Y-109458757D01*
X121922800Y-109701954D01*
X121922800Y-109753998D01*
X121902269Y-109883629D01*
X121840845Y-110004178D01*
X121742243Y-110102780D01*
X121499046Y-110181800D01*
X121059200Y-110181800D01*
X121059200Y-109278200D01*
X121494998Y-109278200D01*
X121624629Y-109298731D01*
G37*
G36*
X138940800Y-105101800D02*
G01*
X138505002Y-105101800D01*
X138375371Y-105081269D01*
X138254822Y-105019845D01*
X138156220Y-104921243D01*
X138077200Y-104678046D01*
X138077200Y-104626002D01*
X138097731Y-104496371D01*
X138159155Y-104375822D01*
X138257757Y-104277220D01*
X138500954Y-104198200D01*
X138940800Y-104198200D01*
X138940800Y-105101800D01*
G37*
G36*
X138940800Y-107641800D02*
G01*
X138505002Y-107641800D01*
X138375371Y-107621269D01*
X138254822Y-107559845D01*
X138156220Y-107461243D01*
X138077200Y-107218046D01*
X138077200Y-107166002D01*
X138097731Y-107036371D01*
X138159155Y-106915822D01*
X138257757Y-106817220D01*
X138500954Y-106738200D01*
X138940800Y-106738200D01*
X138940800Y-107641800D01*
G37*
G36*
X138940800Y-110181800D02*
G01*
X138505002Y-110181800D01*
X138375371Y-110161269D01*
X138254822Y-110099845D01*
X138156220Y-110001243D01*
X138077200Y-109758046D01*
X138077200Y-109706002D01*
X138097731Y-109576371D01*
X138159155Y-109455822D01*
X138257757Y-109357220D01*
X138500954Y-109278200D01*
X138940800Y-109278200D01*
X138940800Y-110181800D01*
G37*
G36*
X138940800Y-112721800D02*
G01*
X138505002Y-112721800D01*
X138375371Y-112701269D01*
X138254822Y-112639845D01*
X138156220Y-112541243D01*
X138077200Y-112298046D01*
X138077200Y-112246002D01*
X138097731Y-112116371D01*
X138159155Y-111995822D01*
X138257757Y-111897220D01*
X138500954Y-111818200D01*
X138940800Y-111818200D01*
X138940800Y-112721800D01*
G37*
G36*
X138940800Y-115261800D02*
G01*
X138505002Y-115261800D01*
X138375371Y-115241269D01*
X138254822Y-115179845D01*
X138156220Y-115081243D01*
X138077200Y-114838046D01*
X138077200Y-114786002D01*
X138097731Y-114656371D01*
X138159155Y-114535822D01*
X138257757Y-114437220D01*
X138500954Y-114358200D01*
X138940800Y-114358200D01*
X138940800Y-115261800D01*
G37*
G36*
X138940800Y-117801800D02*
G01*
X138505002Y-117801800D01*
X138375371Y-117781269D01*
X138254822Y-117719845D01*
X138156220Y-117621243D01*
X138077200Y-117378046D01*
X138077200Y-117326002D01*
X138097731Y-117196371D01*
X138159155Y-117075822D01*
X138257757Y-116977220D01*
X138500954Y-116898200D01*
X138940800Y-116898200D01*
X138940800Y-117801800D01*
G37*
%TO.C,JP1*%
G36*
X134532447Y-102669919D02*
G01*
X136032447Y-102669919D01*
X136032447Y-104169919D01*
X134532447Y-104169919D01*
X134532447Y-102669919D01*
G37*
%TO.C,JP4*%
G36*
X125454000Y-104142725D02*
G01*
X123954000Y-104142725D01*
X123954000Y-102642725D01*
X125454000Y-102642725D01*
X125454000Y-104142725D01*
G37*
%TD*%
D11*
%TO.C,H2*%
X84000000Y-119000000D03*
%TD*%
%TO.C,H4*%
X84000000Y-69000000D03*
%TD*%
D12*
%TO.C,U3*%
X133086000Y-83288000D03*
D13*
X130546000Y-83288000D03*
X128006000Y-83288000D03*
X125466001Y-83288000D03*
X122925999Y-83288000D03*
X120386000Y-83288000D03*
X117846000Y-83288000D03*
X115306000Y-83288000D03*
X133086000Y-95988000D03*
X130546000Y-95988000D03*
X128006000Y-95988000D03*
X125466001Y-95988000D03*
X122925999Y-95988000D03*
X120386000Y-95988000D03*
X117846000Y-95988000D03*
X115306000Y-95988000D03*
%TD*%
D11*
%TO.C,H1*%
X176000000Y-119000000D03*
%TD*%
D14*
%TO.C,U6*%
X89652000Y-98020000D03*
D15*
X89652000Y-95480000D03*
X89652000Y-92940000D03*
%TD*%
D16*
%TO.C,U1*%
X89652000Y-105640001D03*
D17*
X89652000Y-108180001D03*
X89652000Y-110720000D03*
%TD*%
D18*
%TO.C,J11*%
X109972000Y-111228000D03*
D19*
X107432000Y-111228000D03*
X104892000Y-111228000D03*
X102352000Y-111228000D03*
%TD*%
D20*
%TO.C,BZ1*%
X157480000Y-115800000D03*
D21*
X165080001Y-115800000D03*
%TD*%
D18*
%TO.C,J15*%
X98039000Y-118848000D03*
D19*
X95499000Y-118848000D03*
%TD*%
D22*
%TO.C,U2*%
X138890000Y-118620000D03*
D23*
X137620000Y-118620000D03*
D22*
X138890000Y-116080000D03*
D23*
X137620000Y-116080000D03*
D22*
X138890000Y-113540000D03*
D23*
X137620000Y-113540000D03*
D22*
X138890000Y-111000000D03*
D23*
X137620000Y-111000000D03*
D22*
X138890000Y-108460000D03*
D23*
X137620000Y-108460000D03*
D22*
X138890000Y-105920000D03*
D23*
X137620000Y-105920000D03*
D22*
X138890000Y-103380000D03*
D23*
X137620000Y-103380000D03*
X122380000Y-103380000D03*
D22*
X121110000Y-103380000D03*
D23*
X122380000Y-105920000D03*
D22*
X121110000Y-105920000D03*
D23*
X122380000Y-108460000D03*
D22*
X121110000Y-108460000D03*
D23*
X122380000Y-111000000D03*
D22*
X121110000Y-111000000D03*
D23*
X122380000Y-113540000D03*
D22*
X121110000Y-113540000D03*
D23*
X122380000Y-116080000D03*
D22*
X121110000Y-116080000D03*
D23*
X122380000Y-118620000D03*
D22*
X121110000Y-118620000D03*
X138890000Y-117350000D03*
X138890000Y-114810000D03*
X138890000Y-112270000D03*
X138890000Y-109730000D03*
X138890000Y-107190000D03*
X138890000Y-104650000D03*
X121110000Y-104650000D03*
X121110000Y-107190000D03*
X121110000Y-109730000D03*
%TD*%
D12*
%TO.C,U4*%
X158486000Y-83288000D03*
D13*
X155946000Y-83288000D03*
X153406000Y-83288000D03*
X150866001Y-83288000D03*
X148325999Y-83288000D03*
X145786000Y-83288000D03*
X143246000Y-83288000D03*
X140706000Y-83288000D03*
X158486000Y-95988000D03*
X155946000Y-95988000D03*
X153406000Y-95988000D03*
X150866001Y-95988000D03*
X148325999Y-95988000D03*
X145786000Y-95988000D03*
X143246000Y-95988000D03*
X140706000Y-95988000D03*
%TD*%
D14*
%TO.C,U7*%
X89652000Y-85788000D03*
D15*
X89652000Y-83248000D03*
X89652000Y-80708000D03*
%TD*%
D24*
%TO.C,SW3*%
X175906000Y-85946000D03*
D25*
X175906000Y-80946000D03*
X175906000Y-75946000D03*
%TD*%
D11*
%TO.C,H3*%
X176000000Y-69000000D03*
%TD*%
D26*
%TO.C,J5*%
X123650000Y-68980000D03*
D19*
X126190000Y-68980000D03*
X128729999Y-68980000D03*
X131270000Y-68980000D03*
X133810000Y-68980000D03*
X136350000Y-68980000D03*
%TD*%
D27*
%TO.C,J8*%
X101126000Y-86844000D03*
D28*
X101126000Y-84304000D03*
X101126000Y-81764000D03*
X101126000Y-79224000D03*
%TD*%
D29*
%TO.C,JP1*%
X135282447Y-102119919D03*
D30*
X135282447Y-103419919D03*
D31*
X135282447Y-104719919D03*
%TD*%
D32*
%TO.C,C3*%
X118446000Y-87985349D03*
D33*
X118446000Y-91485349D03*
%TD*%
D26*
%TO.C,J6*%
X93650000Y-68980000D03*
D19*
X96190000Y-68980000D03*
X98729999Y-68980000D03*
X101270000Y-68980000D03*
X103810000Y-68980000D03*
X106350000Y-68980000D03*
%TD*%
D34*
%TO.C,JP4*%
X124704000Y-104692725D03*
D30*
X124704000Y-103392725D03*
D35*
X124704000Y-102092725D03*
%TD*%
D36*
%TO.C,R10*%
X86578000Y-113260000D03*
X89678000Y-113260000D03*
%TD*%
D26*
%TO.C,J12*%
X111190000Y-69000000D03*
D19*
X113730000Y-69000000D03*
X116269999Y-69000000D03*
X118810000Y-69000000D03*
%TD*%
D37*
%TO.C,D3*%
X93208000Y-85790500D03*
X93208000Y-80790500D03*
%TD*%
D38*
%TO.C,J3*%
X99812000Y-102562000D03*
D39*
X99812000Y-100022000D03*
X99812000Y-97482001D03*
%TD*%
D38*
%TO.C,J2*%
X102352000Y-102577000D03*
D39*
X102352000Y-100037000D03*
X102352000Y-97497001D03*
%TD*%
D32*
%TO.C,C4*%
X144008000Y-87985349D03*
D33*
X144008000Y-91485349D03*
%TD*%
D36*
%TO.C,R9*%
X86578000Y-90194500D03*
X89678000Y-90194500D03*
%TD*%
D40*
%TO.C,D5*%
X93716000Y-105720000D03*
X93716000Y-110720000D03*
%TD*%
D37*
%TO.C,D7*%
X93208000Y-98022500D03*
X93208000Y-93022500D03*
%TD*%
D27*
%TO.C,J7*%
X108448000Y-86844000D03*
D28*
X108448000Y-84304000D03*
X108448000Y-81764000D03*
X108448000Y-79224000D03*
%TD*%
D41*
%TO.C,R6*%
X108474001Y-105640000D03*
X105373999Y-105640000D03*
%TD*%
D18*
%TO.C,J1*%
X104389000Y-118868000D03*
D19*
X101849000Y-118868000D03*
%TD*%
D36*
%TO.C,R15*%
X86577999Y-78510500D03*
X89678001Y-78510500D03*
%TD*%
D18*
%TO.C,J14*%
X153452000Y-77700000D03*
D19*
X150912000Y-77700000D03*
X148372001Y-77700000D03*
X145832000Y-77700000D03*
%TD*%
D41*
%TO.C,R5*%
X108474001Y-103100000D03*
X105373999Y-103100000D03*
%TD*%
D26*
%TO.C,J4*%
X153650000Y-68980000D03*
D19*
X156190000Y-68980000D03*
X158729999Y-68980000D03*
X161270000Y-68980000D03*
X163810000Y-68980000D03*
X166350000Y-68980000D03*
%TD*%
D18*
%TO.C,J13*%
X128010707Y-77513039D03*
D19*
X125470707Y-77513039D03*
X122930708Y-77513039D03*
X120390707Y-77513039D03*
%TD*%
M02*
